<?xml version="1.0" encoding="UTF-8" standalone="no"?>
<svg width="507.647mm" height="56.0917mm"
 xmlns="http://www.w3.org/2000/svg" xmlns:xlink="http://www.w3.org/1999/xlink"  version="1.2" baseProfile="tiny">
<title>Qt SVG Document</title>
<desc>Generated with Qt</desc>
<defs>
</defs>
<g fill="none" stroke="black" stroke-width="1" fill-rule="evenodd" stroke-linecap="square" stroke-linejoin="bevel" >

<g fill="none" stroke="#000000" stroke-opacity="1" stroke-width="1" stroke-linecap="square" stroke-linejoin="bevel" transform="matrix(1,0,0,1,0,0)"
font-family="Ubuntu" font-size="11" font-weight="400" font-style="normal" 
>
</g>

<g fill="none" stroke="#000000" stroke-opacity="1" stroke-width="1" stroke-linecap="square" stroke-linejoin="bevel" transform="matrix(1,0,0,1,0,0)"
font-family="Ubuntu" font-size="11" font-weight="400" font-style="normal" 
>
</g>

<g fill="none" stroke="#000000" stroke-opacity="1" stroke-width="1" stroke-linecap="square" stroke-linejoin="bevel" transform="matrix(1.99952,0,0,1.99952,-14.9964,173.958)"
font-family="Ubuntu" font-size="11" font-weight="400" font-style="normal" 
>
</g>

<g fill="#ffffff" fill-opacity="1" stroke="none" transform="matrix(1.99952,0,0,1.99952,-14.9964,173.958)"
font-family="Ubuntu" font-size="11" font-weight="400" font-style="normal" 
>
<rect x="7.5" y="-87" width="719.672" height="79.5"/>
</g>

<g fill="none" stroke="#000000" stroke-opacity="1" stroke-width="1" stroke-linecap="square" stroke-linejoin="bevel" transform="matrix(1.99952,0,0,1.99952,-14.9964,173.958)"
font-family="Ubuntu" font-size="11" font-weight="400" font-style="normal" 
>
</g>

<g fill="none" stroke="#000000" stroke-opacity="1" stroke-width="1" stroke-linecap="square" stroke-linejoin="bevel" transform="matrix(1.99952,0,0,1.99952,-14.9964,173.958)"
font-family="Ubuntu" font-size="11" font-weight="400" font-style="normal" 
>
</g>

<g fill="none" stroke="#000000" stroke-opacity="1" stroke-width="1" stroke-linecap="square" stroke-linejoin="bevel" transform="matrix(1.99952,0,0,1.99952,-14.9964,173.958)"
font-family="Ubuntu" font-size="11" font-weight="400" font-style="normal" 
>
</g>

<g fill="none" stroke="#000000" stroke-opacity="1" stroke-width="1" stroke-linecap="square" stroke-linejoin="bevel" transform="matrix(1.99952,0,0,1.99952,-14.9964,173.958)"
font-family="Ubuntu" font-size="11" font-weight="400" font-style="normal" 
>
</g>

<g fill="none" stroke="#000000" stroke-opacity="1" stroke-width="1" stroke-linecap="square" stroke-linejoin="round" transform="matrix(1.99952,0,0,1.99952,-14.9964,173.958)"
font-family="Ubuntu" font-size="11" font-weight="400" font-style="normal" 
>
<rect x="8" y="-83" width="100.49" height="75"/>
</g>

<g fill="none" stroke="#000000" stroke-opacity="1" stroke-width="1" stroke-linecap="square" stroke-linejoin="bevel" transform="matrix(1.99952,0,0,1.99952,-14.9964,173.958)"
font-family="Ubuntu" font-size="11" font-weight="400" font-style="normal" 
>
</g>

<g fill="none" stroke="#000000" stroke-opacity="1" stroke-width="1" stroke-linecap="square" stroke-linejoin="bevel" transform="matrix(1.99952,0,0,1.99952,75.2865,16.9959)"
font-family="Ubuntu" font-size="11" font-weight="400" font-style="normal" 
>
</g>

<g fill="none" stroke="#000000" stroke-opacity="1" stroke-width="1" stroke-linecap="square" stroke-linejoin="bevel" transform="matrix(1.99952,0,0,1.99952,75.2865,16.9959)"
font-family="sans" font-size="11" font-weight="100" font-style="normal" 
>
</g>

<g fill="#000000" fill-opacity="1" stroke="#000000" stroke-opacity="1" stroke-width="1" stroke-linecap="square" stroke-linejoin="round" transform="matrix(1.99952,0,0,1.99952,75.2865,16.9959)"
font-family="sans" font-size="11" font-weight="100" font-style="normal" 
>
<path vector-effect="none" fill-rule="nonzero" d="M2.96875,2.98438 L3.53125,2.98438 L0.734375,12.0156 L0.171875,12.0156 L2.96875,2.98438 M10.5313,10.3125 L10.5313,7.51563 L8.48438,7.51563 L8.48438,7.0625 L11.0625,7.0625 L11.0625,10.5781 C10.6771,10.7656 10.2552,10.9063 9.79688,11 C9.33854,11.0938 8.84896,11.1458 8.32813,11.1563 C7.16146,11.1563 6.25521,10.7865 5.60938,10.0469 C4.95313,9.31771 4.625,8.30208 4.625,7 C4.625,5.6875 4.95313,4.66667 5.60938,3.9375 C6.25521,3.19792 7.16146,2.82813 8.32813,2.82813 C8.80729,2.82813 9.26042,2.88021 9.6875,2.98438 C10.1146,3.08854 10.5052,3.23958 10.8594,3.4375 L10.8594,3.95313 C10.5052,3.75521 10.1198,3.60417 9.70313,3.5 C9.29688,3.39583 8.86458,3.34375 8.40625,3.34375 C7.33333,3.34375 6.52604,3.65104 5.98438,4.26563 C5.44271,4.88021 5.17188,5.79167 5.17188,7 C5.17188,8.22917 5.44271,9.15104 5.98438,9.76563 C6.52604,10.3906 7.33333,10.7031 8.40625,10.7031 C8.85417,10.7031 9.25,10.6719 9.59375,10.6094 C9.9375,10.5469 10.25,10.4479 10.5313,10.3125 M13.5469,10.5625 L18.1094,10.5625 L18.1094,11 L12.9844,11 L12.9844,10.4375 L14.9844,8.35938 C15.474,7.85938 15.9219,7.39583 16.3281,6.96875 C16.6927,6.57292 16.9375,6.26563 17.0625,6.04688 C17.1875,5.82813 17.25,5.53646 17.25,5.17188 C17.25,4.55729 17.0625,4.0625 16.6875,3.6875 C16.4167,3.41667 15.974,3.28125 15.3594,3.28125 C14.9948,3.28125 14.5833,3.38542 14.125,3.59375 C13.9167,3.6875 13.5677,3.89063 13.0781,4.20313 L13.0781,3.64063 C13.2865,3.49479 13.5885,3.32813 13.9844,3.14063 C14.4427,2.94271 14.8958,2.83854 15.3438,2.82813 C16.0313,2.82813 16.6094,3.01042 17.0781,3.375 C17.5365,3.72917 17.7656,4.3125 17.7656,5.125 C17.7656,5.45833 17.7031,5.77083 17.5781,6.0625 C17.4323,6.40625 17.2083,6.75521 16.9063,7.10938 C16.8125,7.21354 16.526,7.51042 16.0469,8 L13.5469,10.5625 M20.6875,10.8281 L20.6875,10.2656 C20.9375,10.4115 21.1875,10.526 21.4375,10.6094 C21.6875,10.6823 21.9375,10.7188 22.1875,10.7188 C23.25,10.7188 23.9948,10.1979 24.4219,9.15625 C24.6198,8.67708 24.7083,7.86979 24.6875,6.73438 C24.5104,7.13021 24.2813,7.4375 24,7.65625 C23.6354,7.94792 23.1771,8.09375 22.625,8.09375 C21.9479,8.09375 21.3854,7.85417 20.9375,7.375 C20.4896,6.90625 20.2656,6.30208 20.2656,5.5625 C20.2656,4.73958 20.4844,4.07813 20.9219,3.57813 C21.3698,3.07813 21.9427,2.82813 22.6406,2.82813 C23.4844,2.82813 24.1302,3.1875 24.5781,3.90625 C25.026,4.61458 25.25,5.64583 25.25,7 C25.25,8.4375 24.974,9.48958 24.4219,10.1563 C23.8802,10.8229 23.1458,11.1563 22.2188,11.1563 C21.9688,11.1563 21.7188,11.1302 21.4688,11.0781 C21.2188,11.026 20.9583,10.9427 20.6875,10.8281 M21.3281,7.05469 C21.6615,7.44531 22.112,7.64063 22.6797,7.64063 C23.2474,7.64063 23.6979,7.44531 24.0313,7.05469 C24.3646,6.66406 24.5313,6.13021 24.5313,5.45313 C24.5313,4.77604 24.3646,4.24219 24.0313,3.85156 C23.6979,3.46094 23.2474,3.26563 22.6797,3.26563 C22.112,3.26563 21.6615,3.46094 21.3281,3.85156 C20.9948,4.24219 20.8281,4.77604 20.8281,5.45313 C20.8281,6.13021 20.9948,6.66406 21.3281,7.05469 "/>
</g>

<g fill="none" stroke="#000000" stroke-opacity="1" stroke-width="1" stroke-linecap="square" stroke-linejoin="bevel" transform="matrix(1.99952,0,0,1.99952,75.2865,16.9959)"
font-family="sans" font-size="11" font-weight="100" font-style="normal" 
>
</g>

<g fill="none" stroke="#000000" stroke-opacity="1" stroke-width="1" stroke-linecap="square" stroke-linejoin="bevel" transform="matrix(1.99952,0,0,1.99952,75.2865,16.9959)"
font-family="Ubuntu" font-size="11" font-weight="400" font-style="normal" 
>
</g>

<g fill="none" stroke="#000000" stroke-opacity="1" stroke-width="1" stroke-linecap="square" stroke-linejoin="bevel" transform="matrix(1.99952,0,0,1.99952,-14.9964,173.958)"
font-family="Ubuntu" font-size="11" font-weight="400" font-style="normal" 
>
</g>

<g fill="none" stroke="#000000" stroke-opacity="1" stroke-width="1" stroke-linecap="square" stroke-linejoin="bevel" transform="matrix(1.99952,0,0,1.99952,-14.9964,173.958)"
font-family="Ubuntu" font-size="11" font-weight="400" font-style="normal" 
>
</g>

<g fill="none" stroke="#000000" stroke-opacity="1" stroke-width="1" stroke-linecap="square" stroke-linejoin="bevel" transform="matrix(1.99952,0,0,1.99952,-14.9964,173.958)"
font-family="Ubuntu" font-size="11" font-weight="400" font-style="normal" 
>
</g>

<g fill="none" stroke="#000000" stroke-opacity="1" stroke-width="1" stroke-linecap="square" stroke-linejoin="round" transform="matrix(1.99952,0,0,1.99952,-14.9964,173.958)"
font-family="Ubuntu" font-size="11" font-weight="400" font-style="normal" 
>
<ellipse cx="58.246" cy="-34" rx="41.746" ry="17.5"/>
</g>

<g fill="none" stroke="#000000" stroke-opacity="1" stroke-width="1" stroke-linecap="square" stroke-linejoin="bevel" transform="matrix(1.99952,0,0,1.99952,-14.9964,173.958)"
font-family="Ubuntu" font-size="11" font-weight="400" font-style="normal" 
>
</g>

<g fill="none" stroke="#000000" stroke-opacity="1" stroke-width="1" stroke-linecap="square" stroke-linejoin="bevel" transform="matrix(1.99952,0,0,1.99952,55.3225,91.978)"
font-family="Ubuntu" font-size="11" font-weight="400" font-style="normal" 
>
</g>

<g fill="none" stroke="#000000" stroke-opacity="1" stroke-width="1" stroke-linecap="square" stroke-linejoin="bevel" transform="matrix(1.99952,0,0,1.99952,55.3225,91.978)"
font-family="sans" font-size="11" font-weight="100" font-style="normal" 
>
</g>

<g fill="#000000" fill-opacity="1" stroke="#000000" stroke-opacity="1" stroke-width="1" stroke-linecap="square" stroke-linejoin="round" transform="matrix(1.99952,0,0,1.99952,55.3225,91.978)"
font-family="sans" font-size="11" font-weight="100" font-style="normal" 
>
<path vector-effect="none" fill-rule="nonzero" d="M2.96875,2.98438 L3.53125,2.98438 L0.734375,12.0156 L0.171875,12.0156 L2.96875,2.98438 M10.5313,10.3125 L10.5313,7.51563 L8.48438,7.51563 L8.48438,7.0625 L11.0625,7.0625 L11.0625,10.5781 C10.6771,10.7656 10.2552,10.9063 9.79688,11 C9.33854,11.0938 8.84896,11.1458 8.32813,11.1563 C7.16146,11.1563 6.25521,10.7865 5.60938,10.0469 C4.95313,9.31771 4.625,8.30208 4.625,7 C4.625,5.6875 4.95313,4.66667 5.60938,3.9375 C6.25521,3.19792 7.16146,2.82813 8.32813,2.82813 C8.80729,2.82813 9.26042,2.88021 9.6875,2.98438 C10.1146,3.08854 10.5052,3.23958 10.8594,3.4375 L10.8594,3.95313 C10.5052,3.75521 10.1198,3.60417 9.70313,3.5 C9.29688,3.39583 8.86458,3.34375 8.40625,3.34375 C7.33333,3.34375 6.52604,3.65104 5.98438,4.26563 C5.44271,4.88021 5.17188,5.79167 5.17188,7 C5.17188,8.22917 5.44271,9.15104 5.98438,9.76563 C6.52604,10.3906 7.33333,10.7031 8.40625,10.7031 C8.85417,10.7031 9.25,10.6719 9.59375,10.6094 C9.9375,10.5469 10.25,10.4479 10.5313,10.3125 M13.5469,10.5625 L18.1094,10.5625 L18.1094,11 L12.9844,11 L12.9844,10.4375 L14.9844,8.35938 C15.474,7.85938 15.9219,7.39583 16.3281,6.96875 C16.6927,6.57292 16.9375,6.26563 17.0625,6.04688 C17.1875,5.82813 17.25,5.53646 17.25,5.17188 C17.25,4.55729 17.0625,4.0625 16.6875,3.6875 C16.4167,3.41667 15.974,3.28125 15.3594,3.28125 C14.9948,3.28125 14.5833,3.38542 14.125,3.59375 C13.9167,3.6875 13.5677,3.89063 13.0781,4.20313 L13.0781,3.64063 C13.2865,3.49479 13.5885,3.32813 13.9844,3.14063 C14.4427,2.94271 14.8958,2.83854 15.3438,2.82813 C16.0313,2.82813 16.6094,3.01042 17.0781,3.375 C17.5365,3.72917 17.7656,4.3125 17.7656,5.125 C17.7656,5.45833 17.7031,5.77083 17.5781,6.0625 C17.4323,6.40625 17.2083,6.75521 16.9063,7.10938 C16.8125,7.21354 16.526,7.51042 16.0469,8 L13.5469,10.5625 M20.6875,10.8281 L20.6875,10.2656 C20.9375,10.4115 21.1875,10.526 21.4375,10.6094 C21.6875,10.6823 21.9375,10.7188 22.1875,10.7188 C23.25,10.7188 23.9948,10.1979 24.4219,9.15625 C24.6198,8.67708 24.7083,7.86979 24.6875,6.73438 C24.5104,7.13021 24.2813,7.4375 24,7.65625 C23.6354,7.94792 23.1771,8.09375 22.625,8.09375 C21.9479,8.09375 21.3854,7.85417 20.9375,7.375 C20.4896,6.90625 20.2656,6.30208 20.2656,5.5625 C20.2656,4.73958 20.4844,4.07813 20.9219,3.57813 C21.3698,3.07813 21.9427,2.82813 22.6406,2.82813 C23.4844,2.82813 24.1302,3.1875 24.5781,3.90625 C25.026,4.61458 25.25,5.64583 25.25,7 C25.25,8.4375 24.974,9.48958 24.4219,10.1563 C23.8802,10.8229 23.1458,11.1563 22.2188,11.1563 C21.9688,11.1563 21.7188,11.1302 21.4688,11.0781 C21.2188,11.026 20.9583,10.9427 20.6875,10.8281 M21.3281,7.05469 C21.6615,7.44531 22.112,7.64063 22.6797,7.64063 C23.2474,7.64063 23.6979,7.44531 24.0313,7.05469 C24.3646,6.66406 24.5313,6.13021 24.5313,5.45313 C24.5313,4.77604 24.3646,4.24219 24.0313,3.85156 C23.6979,3.46094 23.2474,3.26563 22.6797,3.26563 C22.112,3.26563 21.6615,3.46094 21.3281,3.85156 C20.9948,4.24219 20.8281,4.77604 20.8281,5.45313 C20.8281,6.13021 20.9948,6.66406 21.3281,7.05469 M29.1563,2.98438 L29.7188,2.98438 L26.9219,12.0156 L26.3594,12.0156 L29.1563,2.98438 M31.1719,4.98438 L31.6719,4.98438 L31.6719,11.1094 C31.6719,11.9219 31.5469,12.4896 31.2969,12.8125 C31.0469,13.125 30.6354,13.2813 30.0625,13.2813 L29.6875,13.2813 L29.6875,12.875 L29.9531,12.875 C30.3594,12.875 30.6667,12.7813 30.875,12.5938 C31.0729,12.4167 31.1719,11.9219 31.1719,11.1094 L31.1719,4.98438 M31.1719,2.64063 L31.6719,2.64063 L31.6719,3.3125 L31.1719,3.3125 L31.1719,2.64063 M37.7656,6.01563 C37.4115,5.52604 36.9271,5.28125 36.3125,5.28125 C35.6979,5.28125 35.2135,5.52604 34.8594,6.01563 C34.5052,6.49479 34.3281,7.15104 34.3281,7.98438 C34.3281,8.83854 34.5052,9.51042 34.8594,10 C35.2135,10.4896 35.6979,10.7344 36.3125,10.7344 C36.9271,10.7344 37.4115,10.4896 37.7656,10 C38.1198,9.5 38.2969,8.82813 38.2969,7.98438 C38.2969,7.16146 38.1198,6.50521 37.7656,6.01563 M36.3125,4.84375 C37.0729,4.84375 37.6771,5.13021 38.125,5.70313 C38.5729,6.27604 38.7969,7.03646 38.7969,7.98438 C38.7969,8.97396 38.5729,9.75521 38.125,10.3281 C37.6771,10.901 37.0729,11.1875 36.3125,11.1875 C35.5313,11.1875 34.9167,10.901 34.4688,10.3281 C34.0313,9.75521 33.8125,8.97396 33.8125,7.98438 C33.8125,7.02604 34.0365,6.26302 34.4844,5.69531 C34.9323,5.1276 35.5417,4.84375 36.3125,4.84375 M42.9375,11.5625 C42.7188,12.0938 42.4844,12.4635 42.2344,12.6719 C41.901,12.9427 41.5781,13.0781 41.2656,13.0781 L40.5313,13.0781 L40.5313,12.6563 L41.1563,12.6563 C41.4167,12.6563 41.6458,12.5729 41.8438,12.4063 C42.0938,12.1875 42.3021,11.8698 42.4688,11.4531 L42.6406,11 L40.25,4.98438 L40.7813,4.98438 L42.9063,10.3438 L45.0469,4.98438 L45.5781,4.98438 L42.9375,11.5625"/>
</g>

<g fill="none" stroke="#000000" stroke-opacity="1" stroke-width="1" stroke-linecap="square" stroke-linejoin="bevel" transform="matrix(1.99952,0,0,1.99952,55.3225,91.978)"
font-family="sans" font-size="11" font-weight="100" font-style="normal" 
>
</g>

<g fill="none" stroke="#000000" stroke-opacity="1" stroke-width="1" stroke-linecap="square" stroke-linejoin="bevel" transform="matrix(1.99952,0,0,1.99952,55.3225,91.978)"
font-family="Ubuntu" font-size="11" font-weight="400" font-style="normal" 
>
</g>

<g fill="none" stroke="#000000" stroke-opacity="1" stroke-width="1" stroke-linecap="square" stroke-linejoin="bevel" transform="matrix(1.99952,0,0,1.99952,-14.9964,173.958)"
font-family="Ubuntu" font-size="11" font-weight="400" font-style="normal" 
>
</g>

<g fill="none" stroke="#000000" stroke-opacity="1" stroke-width="1" stroke-linecap="square" stroke-linejoin="bevel" transform="matrix(1.99952,0,0,1.99952,-14.9964,173.958)"
font-family="Ubuntu" font-size="11" font-weight="400" font-style="normal" 
>
</g>

<g fill="none" stroke="#000000" stroke-opacity="1" stroke-width="1" stroke-linecap="square" stroke-linejoin="bevel" transform="matrix(1.99952,0,0,1.99952,-14.9964,173.958)"
font-family="Ubuntu" font-size="11" font-weight="400" font-style="normal" 
>
</g>

<g fill="none" stroke="#000000" stroke-opacity="1" stroke-width="1" stroke-linecap="square" stroke-linejoin="round" transform="matrix(1.99952,0,0,1.99952,-14.9964,173.958)"
font-family="Ubuntu" font-size="11" font-weight="400" font-style="normal" 
>
<ellipse cx="58.246" cy="-34" rx="41.746" ry="17.5"/>
</g>

<g fill="none" stroke="#000000" stroke-opacity="1" stroke-width="1" stroke-linecap="square" stroke-linejoin="bevel" transform="matrix(1.99952,0,0,1.99952,-14.9964,173.958)"
font-family="Ubuntu" font-size="11" font-weight="400" font-style="normal" 
>
</g>

<g fill="none" stroke="#000000" stroke-opacity="1" stroke-width="1" stroke-linecap="square" stroke-linejoin="bevel" transform="matrix(1.99952,0,0,1.99952,55.3225,91.978)"
font-family="Ubuntu" font-size="11" font-weight="400" font-style="normal" 
>
</g>

<g fill="none" stroke="#000000" stroke-opacity="1" stroke-width="1" stroke-linecap="square" stroke-linejoin="bevel" transform="matrix(1.99952,0,0,1.99952,55.3225,91.978)"
font-family="sans" font-size="11" font-weight="100" font-style="normal" 
>
</g>

<g fill="#000000" fill-opacity="1" stroke="#000000" stroke-opacity="1" stroke-width="1" stroke-linecap="square" stroke-linejoin="round" transform="matrix(1.99952,0,0,1.99952,55.3225,91.978)"
font-family="sans" font-size="11" font-weight="100" font-style="normal" 
>
<path vector-effect="none" fill-rule="nonzero" d="M2.96875,2.98438 L3.53125,2.98438 L0.734375,12.0156 L0.171875,12.0156 L2.96875,2.98438 M10.5313,10.3125 L10.5313,7.51563 L8.48438,7.51563 L8.48438,7.0625 L11.0625,7.0625 L11.0625,10.5781 C10.6771,10.7656 10.2552,10.9063 9.79688,11 C9.33854,11.0938 8.84896,11.1458 8.32813,11.1563 C7.16146,11.1563 6.25521,10.7865 5.60938,10.0469 C4.95313,9.31771 4.625,8.30208 4.625,7 C4.625,5.6875 4.95313,4.66667 5.60938,3.9375 C6.25521,3.19792 7.16146,2.82813 8.32813,2.82813 C8.80729,2.82813 9.26042,2.88021 9.6875,2.98438 C10.1146,3.08854 10.5052,3.23958 10.8594,3.4375 L10.8594,3.95313 C10.5052,3.75521 10.1198,3.60417 9.70313,3.5 C9.29688,3.39583 8.86458,3.34375 8.40625,3.34375 C7.33333,3.34375 6.52604,3.65104 5.98438,4.26563 C5.44271,4.88021 5.17188,5.79167 5.17188,7 C5.17188,8.22917 5.44271,9.15104 5.98438,9.76563 C6.52604,10.3906 7.33333,10.7031 8.40625,10.7031 C8.85417,10.7031 9.25,10.6719 9.59375,10.6094 C9.9375,10.5469 10.25,10.4479 10.5313,10.3125 M13.5469,10.5625 L18.1094,10.5625 L18.1094,11 L12.9844,11 L12.9844,10.4375 L14.9844,8.35938 C15.474,7.85938 15.9219,7.39583 16.3281,6.96875 C16.6927,6.57292 16.9375,6.26563 17.0625,6.04688 C17.1875,5.82813 17.25,5.53646 17.25,5.17188 C17.25,4.55729 17.0625,4.0625 16.6875,3.6875 C16.4167,3.41667 15.974,3.28125 15.3594,3.28125 C14.9948,3.28125 14.5833,3.38542 14.125,3.59375 C13.9167,3.6875 13.5677,3.89063 13.0781,4.20313 L13.0781,3.64063 C13.2865,3.49479 13.5885,3.32813 13.9844,3.14063 C14.4427,2.94271 14.8958,2.83854 15.3438,2.82813 C16.0313,2.82813 16.6094,3.01042 17.0781,3.375 C17.5365,3.72917 17.7656,4.3125 17.7656,5.125 C17.7656,5.45833 17.7031,5.77083 17.5781,6.0625 C17.4323,6.40625 17.2083,6.75521 16.9063,7.10938 C16.8125,7.21354 16.526,7.51042 16.0469,8 L13.5469,10.5625 M20.6875,10.8281 L20.6875,10.2656 C20.9375,10.4115 21.1875,10.526 21.4375,10.6094 C21.6875,10.6823 21.9375,10.7188 22.1875,10.7188 C23.25,10.7188 23.9948,10.1979 24.4219,9.15625 C24.6198,8.67708 24.7083,7.86979 24.6875,6.73438 C24.5104,7.13021 24.2813,7.4375 24,7.65625 C23.6354,7.94792 23.1771,8.09375 22.625,8.09375 C21.9479,8.09375 21.3854,7.85417 20.9375,7.375 C20.4896,6.90625 20.2656,6.30208 20.2656,5.5625 C20.2656,4.73958 20.4844,4.07813 20.9219,3.57813 C21.3698,3.07813 21.9427,2.82813 22.6406,2.82813 C23.4844,2.82813 24.1302,3.1875 24.5781,3.90625 C25.026,4.61458 25.25,5.64583 25.25,7 C25.25,8.4375 24.974,9.48958 24.4219,10.1563 C23.8802,10.8229 23.1458,11.1563 22.2188,11.1563 C21.9688,11.1563 21.7188,11.1302 21.4688,11.0781 C21.2188,11.026 20.9583,10.9427 20.6875,10.8281 M21.3281,7.05469 C21.6615,7.44531 22.112,7.64063 22.6797,7.64063 C23.2474,7.64063 23.6979,7.44531 24.0313,7.05469 C24.3646,6.66406 24.5313,6.13021 24.5313,5.45313 C24.5313,4.77604 24.3646,4.24219 24.0313,3.85156 C23.6979,3.46094 23.2474,3.26563 22.6797,3.26563 C22.112,3.26563 21.6615,3.46094 21.3281,3.85156 C20.9948,4.24219 20.8281,4.77604 20.8281,5.45313 C20.8281,6.13021 20.9948,6.66406 21.3281,7.05469 M29.1563,2.98438 L29.7188,2.98438 L26.9219,12.0156 L26.3594,12.0156 L29.1563,2.98438 M31.1719,4.98438 L31.6719,4.98438 L31.6719,11.1094 C31.6719,11.9219 31.5469,12.4896 31.2969,12.8125 C31.0469,13.125 30.6354,13.2813 30.0625,13.2813 L29.6875,13.2813 L29.6875,12.875 L29.9531,12.875 C30.3594,12.875 30.6667,12.7813 30.875,12.5938 C31.0729,12.4167 31.1719,11.9219 31.1719,11.1094 L31.1719,4.98438 M31.1719,2.64063 L31.6719,2.64063 L31.6719,3.3125 L31.1719,3.3125 L31.1719,2.64063 M37.7656,6.01563 C37.4115,5.52604 36.9271,5.28125 36.3125,5.28125 C35.6979,5.28125 35.2135,5.52604 34.8594,6.01563 C34.5052,6.49479 34.3281,7.15104 34.3281,7.98438 C34.3281,8.83854 34.5052,9.51042 34.8594,10 C35.2135,10.4896 35.6979,10.7344 36.3125,10.7344 C36.9271,10.7344 37.4115,10.4896 37.7656,10 C38.1198,9.5 38.2969,8.82813 38.2969,7.98438 C38.2969,7.16146 38.1198,6.50521 37.7656,6.01563 M36.3125,4.84375 C37.0729,4.84375 37.6771,5.13021 38.125,5.70313 C38.5729,6.27604 38.7969,7.03646 38.7969,7.98438 C38.7969,8.97396 38.5729,9.75521 38.125,10.3281 C37.6771,10.901 37.0729,11.1875 36.3125,11.1875 C35.5313,11.1875 34.9167,10.901 34.4688,10.3281 C34.0313,9.75521 33.8125,8.97396 33.8125,7.98438 C33.8125,7.02604 34.0365,6.26302 34.4844,5.69531 C34.9323,5.1276 35.5417,4.84375 36.3125,4.84375 M42.9375,11.5625 C42.7188,12.0938 42.4844,12.4635 42.2344,12.6719 C41.901,12.9427 41.5781,13.0781 41.2656,13.0781 L40.5313,13.0781 L40.5313,12.6563 L41.1563,12.6563 C41.4167,12.6563 41.6458,12.5729 41.8438,12.4063 C42.0938,12.1875 42.3021,11.8698 42.4688,11.4531 L42.6406,11 L40.25,4.98438 L40.7813,4.98438 L42.9063,10.3438 L45.0469,4.98438 L45.5781,4.98438 L42.9375,11.5625"/>
</g>

<g fill="none" stroke="#000000" stroke-opacity="1" stroke-width="1" stroke-linecap="square" stroke-linejoin="bevel" transform="matrix(1.99952,0,0,1.99952,55.3225,91.978)"
font-family="sans" font-size="11" font-weight="100" font-style="normal" 
>
</g>

<g fill="none" stroke="#000000" stroke-opacity="1" stroke-width="1" stroke-linecap="square" stroke-linejoin="bevel" transform="matrix(1.99952,0,0,1.99952,55.3225,91.978)"
font-family="Ubuntu" font-size="11" font-weight="400" font-style="normal" 
>
</g>

<g fill="none" stroke="#000000" stroke-opacity="1" stroke-width="1" stroke-linecap="square" stroke-linejoin="bevel" transform="matrix(1.99952,0,0,1.99952,-14.9964,173.958)"
font-family="Ubuntu" font-size="11" font-weight="400" font-style="normal" 
>
</g>

<g fill="none" stroke="#000000" stroke-opacity="1" stroke-width="1" stroke-linecap="square" stroke-linejoin="bevel" transform="matrix(1.99952,0,0,1.99952,-14.9964,173.958)"
font-family="Ubuntu" font-size="11" font-weight="400" font-style="normal" 
>
</g>

<g fill="none" stroke="#000000" stroke-opacity="1" stroke-width="1" stroke-linecap="square" stroke-linejoin="bevel" transform="matrix(1.99952,0,0,1.99952,-14.9964,173.958)"
font-family="Ubuntu" font-size="11" font-weight="400" font-style="normal" 
>
</g>

<g fill="none" stroke="#000000" stroke-opacity="1" stroke-width="1" stroke-linecap="square" stroke-linejoin="round" transform="matrix(1.99952,0,0,1.99952,-14.9964,173.958)"
font-family="Ubuntu" font-size="11" font-weight="400" font-style="normal" 
>
<ellipse cx="225.49" cy="-34" rx="51.4948" ry="17.5"/>
</g>

<g fill="none" stroke="#000000" stroke-opacity="1" stroke-width="1" stroke-linecap="square" stroke-linejoin="bevel" transform="matrix(1.99952,0,0,1.99952,-14.9964,173.958)"
font-family="Ubuntu" font-size="11" font-weight="400" font-style="normal" 
>
</g>

<g fill="none" stroke="#000000" stroke-opacity="1" stroke-width="1" stroke-linecap="square" stroke-linejoin="bevel" transform="matrix(1.99952,0,0,1.99952,368.298,91.978)"
font-family="Ubuntu" font-size="11" font-weight="400" font-style="normal" 
>
</g>

<g fill="none" stroke="#000000" stroke-opacity="1" stroke-width="1" stroke-linecap="square" stroke-linejoin="bevel" transform="matrix(1.99952,0,0,1.99952,368.298,91.978)"
font-family="sans" font-size="11" font-weight="100" font-style="normal" 
>
</g>

<g fill="#000000" fill-opacity="1" stroke="#000000" stroke-opacity="1" stroke-width="1" stroke-linecap="square" stroke-linejoin="round" transform="matrix(1.99952,0,0,1.99952,368.298,91.978)"
font-family="sans" font-size="11" font-weight="100" font-style="normal" 
>
<path vector-effect="none" fill-rule="nonzero" d="M2.96875,2.98438 L3.53125,2.98438 L0.734375,12.0156 L0.171875,12.0156 L2.96875,2.98438 M5.46875,3.28125 L5.46875,4.98438 L7.5,4.98438 L7.5,5.40625 L5.46875,5.40625 L5.46875,9.01563 C5.46875,9.47396 5.52604,9.79688 5.64063,9.98438 C5.89063,10.3802 6.25,10.5781 6.71875,10.5781 L7.5,10.5781 L7.5,11 L6.73438,11 C6.24479,11 5.82813,10.8568 5.48438,10.5703 C5.14063,10.2839 4.96875,9.76563 4.96875,9.01563 L4.96875,5.40625 L4.25,5.40625 L4.25,4.98438 L4.96875,4.98438 L4.96875,3.28125 L5.46875,3.28125 M13.9531,7.75 L13.9531,8.0625 L9.39063,8.0625 C9.39063,9.02083 9.57813,9.69792 9.95313,10.0938 C10.3698,10.5208 10.9844,10.7344 11.7969,10.7344 C12.0156,10.7344 12.3021,10.6875 12.6563,10.5938 C13.0104,10.5 13.3646,10.3594 13.7188,10.1719 L13.7188,10.6875 C13.3646,10.8438 13.0026,10.9609 12.6328,11.0391 C12.263,11.1172 11.9688,11.1563 11.75,11.1563 C10.8229,11.1563 10.125,10.9063 9.65625,10.4063 C9.14583,9.875 8.89063,9.09375 8.89063,8.0625 C8.89063,6.98958 9.11979,6.1875 9.57813,5.65625 C10.0573,5.11458 10.724,4.84375 11.5781,4.84375 C12.3594,4.84375 12.9531,5.10417 13.3594,5.625 C13.7552,6.16667 13.9531,6.875 13.9531,7.75 M13.4531,7.64063 C13.4531,6.79688 13.2604,6.18229 12.875,5.79688 C12.5625,5.45313 12.1302,5.28125 11.5781,5.28125 C10.9844,5.28125 10.4844,5.45833 10.0781,5.8125 C9.70313,6.14583 9.47917,6.75521 9.40625,7.64063 L13.4531,7.64063 M16.0313,2.64063 L16.5156,2.64063 L16.5156,11 L16.0313,11 L16.0313,2.64063 M23.7656,7.75 L23.7656,8.0625 L19.2031,8.0625 C19.2031,9.02083 19.3906,9.69792 19.7656,10.0938 C20.1823,10.5208 20.7969,10.7344 21.6094,10.7344 C21.8281,10.7344 22.1146,10.6875 22.4688,10.5938 C22.8229,10.5 23.1771,10.3594 23.5313,10.1719 L23.5313,10.6875 C23.1771,10.8438 22.8151,10.9609 22.4453,11.0391 C22.0755,11.1172 21.7813,11.1563 21.5625,11.1563 C20.6354,11.1563 19.9375,10.9063 19.4688,10.4063 C18.9583,9.875 18.7031,9.09375 18.7031,8.0625 C18.7031,6.98958 18.9323,6.1875 19.3906,5.65625 C19.8698,5.11458 20.5365,4.84375 21.3906,4.84375 C22.1719,4.84375 22.7656,5.10417 23.1719,5.625 C23.5677,6.16667 23.7656,6.875 23.7656,7.75 M23.2656,7.64063 C23.2656,6.79688 23.0729,6.18229 22.6875,5.79688 C22.375,5.45313 21.9427,5.28125 21.3906,5.28125 C20.7969,5.28125 20.2969,5.45833 19.8906,5.8125 C19.5156,6.14583 19.2917,6.75521 19.2188,7.64063 L23.2656,7.64063 M28.25,7.60938 C27.4479,7.60938 26.8724,7.75 26.5234,8.03125 C26.1745,8.3125 26,8.72396 26,9.26563 C26,9.79688 26.1458,10.1745 26.4375,10.3984 C26.7292,10.6224 27.0729,10.7344 27.4688,10.7344 C28.2188,10.7344 28.7604,10.4167 29.0938,9.78125 C29.4271,9.13542 29.5938,8.53125 29.5938,7.96875 L29.5938,7.60938 L28.25,7.60938 M30.0938,7.5625 L30.0938,11 L29.5938,11 L29.5938,9.35938 C29.3229,10.1615 28.9583,10.6719 28.5,10.8906 C28.1458,11.0677 27.7865,11.1563 27.4219,11.1563 C26.8281,11.1563 26.3594,10.9948 26.0156,10.6719 C25.6719,10.349 25.5,9.8776 25.5,9.25781 C25.5,8.63802 25.724,8.14063 26.1719,7.76563 C26.6198,7.39063 27.349,7.20313 28.3594,7.20313 L29.5938,7.20313 L29.5938,7.10938 C29.5938,6.57813 29.4375,6.14063 29.125,5.79688 C28.8333,5.45313 28.3385,5.28125 27.6406,5.28125 C27.2969,5.28125 26.9479,5.34375 26.5938,5.46875 C26.3646,5.55208 26.0625,5.71875 25.6875,5.96875 L25.6875,5.4375 C26.0104,5.23958 26.3125,5.09896 26.5938,5.01563 C26.9896,4.90104 27.3698,4.84375 27.7344,4.84375 C28.4531,4.84375 29.0417,5.05729 29.5,5.48438 C29.8958,5.84896 30.0938,6.54167 30.0938,7.5625 M36.5781,6.35938 L36.5781,2.64063 L37.0469,2.64063 L37.0469,11 L36.5781,11 L36.5781,9.64063 C36.349,10.1615 36.099,10.5156 35.8281,10.7031 C35.4323,11.0052 35.0521,11.1563 34.6875,11.1563 C33.9792,11.1563 33.388,10.8672 32.9141,10.2891 C32.4401,9.71094 32.2031,8.94792 32.2031,8 C32.2031,7.05208 32.4401,6.28906 32.9141,5.71094 C33.388,5.13281 33.9792,4.84375 34.6875,4.84375 C35.0521,4.84375 35.4323,4.98958 35.8281,5.28125 C36.099,5.47917 36.349,5.83854 36.5781,6.35938 M33.3438,5.90625 C32.9271,6.32292 32.7188,7.02083 32.7188,8 C32.7188,8.97917 32.9271,9.67708 33.3438,10.0938 C33.7604,10.5104 34.1979,10.7188 34.6563,10.7188 C35.1042,10.7188 35.5365,10.5104 35.9531,10.0938 C36.3594,9.67708 36.5625,8.97917 36.5625,8 C36.5625,7.02083 36.3594,6.32292 35.9531,5.90625 C35.5365,5.48958 35.1042,5.28125 34.6563,5.28125 C34.1979,5.28125 33.7604,5.48958 33.3438,5.90625 M41.9531,7.60938 C41.151,7.60938 40.5755,7.75 40.2266,8.03125 C39.8776,8.3125 39.7031,8.72396 39.7031,9.26563 C39.7031,9.79688 39.849,10.1745 40.1406,10.3984 C40.4323,10.6224 40.776,10.7344 41.1719,10.7344 C41.9219,10.7344 42.4635,10.4167 42.7969,9.78125 C43.1302,9.13542 43.2969,8.53125 43.2969,7.96875 L43.2969,7.60938 L41.9531,7.60938 M43.7969,7.5625 L43.7969,11 L43.2969,11 L43.2969,9.35938 C43.026,10.1615 42.6615,10.6719 42.2031,10.8906 C41.849,11.0677 41.4896,11.1563 41.125,11.1563 C40.5313,11.1563 40.0625,10.9948 39.7188,10.6719 C39.375,10.349 39.2031,9.8776 39.2031,9.25781 C39.2031,8.63802 39.4271,8.14063 39.875,7.76563 C40.3229,7.39063 41.0521,7.20313 42.0625,7.20313 L43.2969,7.20313 L43.2969,7.10938 C43.2969,6.57813 43.1406,6.14063 42.8281,5.79688 C42.5365,5.45313 42.0417,5.28125 41.3438,5.28125 C41,5.28125 40.651,5.34375 40.2969,5.46875 C40.0677,5.55208 39.7656,5.71875 39.3906,5.96875 L39.3906,5.4375 C39.7135,5.23958 40.0156,5.09896 40.2969,5.01563 C40.6927,4.90104 41.0729,4.84375 41.4375,4.84375 C42.1563,4.84375 42.7448,5.05729 43.2031,5.48438 C43.599,5.84896 43.7969,6.54167 43.7969,7.5625 M46.7656,9.64063 L46.7656,13.2813 L46.2813,13.2813 L46.2813,4.98438 L46.7656,4.98438 L46.7656,6.35938 C46.9948,5.83854 47.2396,5.47917 47.5,5.28125 C47.9063,4.98958 48.2917,4.84375 48.6563,4.84375 C49.3646,4.84375 49.9557,5.13281 50.4297,5.71094 C50.9036,6.28906 51.1406,7.05208 51.1406,8 C51.1406,8.94792 50.9036,9.71094 50.4297,10.2891 C49.9557,10.8672 49.3646,11.1563 48.6563,11.1563 C48.2917,11.1563 47.9063,11.0052 47.5,10.7031 C47.2396,10.5156 46.9948,10.1615 46.7656,9.64063 M50,10.0938 C50.4167,9.67708 50.625,8.97917 50.625,8 C50.625,7.02083 50.4167,6.32292 50,5.90625 C49.5833,5.48958 49.1458,5.28125 48.6875,5.28125 C48.2396,5.28125 47.8073,5.48958 47.3906,5.90625 C46.9844,6.32292 46.7813,7.02083 46.7813,8 C46.7813,8.97917 46.9844,9.67708 47.3906,10.0938 C47.8073,10.5104 48.2396,10.7188 48.6875,10.7188 C49.1458,10.7188 49.5833,10.5104 50,10.0938 M53.7656,3.28125 L53.7656,4.98438 L55.7969,4.98438 L55.7969,5.40625 L53.7656,5.40625 L53.7656,9.01563 C53.7656,9.47396 53.8229,9.79688 53.9375,9.98438 C54.1875,10.3802 54.5469,10.5781 55.0156,10.5781 L55.7969,10.5781 L55.7969,11 L55.0313,11 C54.5417,11 54.125,10.8568 53.7813,10.5703 C53.4375,10.2839 53.2656,9.76563 53.2656,9.01563 L53.2656,5.40625 L52.5469,5.40625 L52.5469,4.98438 L53.2656,4.98438 L53.2656,3.28125 L53.7656,3.28125 M62.25,7.75 L62.25,8.0625 L57.6875,8.0625 C57.6875,9.02083 57.875,9.69792 58.25,10.0938 C58.6667,10.5208 59.2813,10.7344 60.0938,10.7344 C60.3125,10.7344 60.599,10.6875 60.9531,10.5938 C61.3073,10.5 61.6615,10.3594 62.0156,10.1719 L62.0156,10.6875 C61.6615,10.8438 61.2995,10.9609 60.9297,11.0391 C60.5599,11.1172 60.2656,11.1563 60.0469,11.1563 C59.1198,11.1563 58.4219,10.9063 57.9531,10.4063 C57.4427,9.875 57.1875,9.09375 57.1875,8.0625 C57.1875,6.98958 57.4167,6.1875 57.875,5.65625 C58.3542,5.11458 59.0208,4.84375 59.875,4.84375 C60.6563,4.84375 61.25,5.10417 61.6563,5.625 C62.0521,6.16667 62.25,6.875 62.25,7.75 M61.75,7.64063 C61.75,6.79688 61.5573,6.18229 61.1719,5.79688 C60.8594,5.45313 60.4271,5.28125 59.875,5.28125 C59.2813,5.28125 58.7813,5.45833 58.375,5.8125 C58,6.14583 57.776,6.75521 57.7031,7.64063 L61.75,7.64063 M67.5938,5.40625 C67.5104,5.36458 67.401,5.33333 67.2656,5.3125 C67.1406,5.29167 66.9896,5.28125 66.8125,5.28125 C66.1979,5.28125 65.6927,5.50521 65.2969,5.95313 C64.974,6.31771 64.8125,6.94271 64.8125,7.82813 L64.8125,11 L64.3281,11 L64.3281,4.98438 L64.8125,4.98438 L64.8125,6.10938 C64.9792,5.78646 65.2083,5.51563 65.5,5.29688 C65.8958,4.99479 66.3646,4.84375 66.9063,4.84375 C67.0521,4.84375 67.1771,4.84896 67.2813,4.85938 C67.3854,4.85938 67.4896,4.86979 67.5938,4.89063 L67.5938,5.40625"/>
</g>

<g fill="none" stroke="#000000" stroke-opacity="1" stroke-width="1" stroke-linecap="square" stroke-linejoin="bevel" transform="matrix(1.99952,0,0,1.99952,368.298,91.978)"
font-family="sans" font-size="11" font-weight="100" font-style="normal" 
>
</g>

<g fill="none" stroke="#000000" stroke-opacity="1" stroke-width="1" stroke-linecap="square" stroke-linejoin="bevel" transform="matrix(1.99952,0,0,1.99952,368.298,91.978)"
font-family="Ubuntu" font-size="11" font-weight="400" font-style="normal" 
>
</g>

<g fill="none" stroke="#000000" stroke-opacity="1" stroke-width="1" stroke-linecap="square" stroke-linejoin="bevel" transform="matrix(1.99952,0,0,1.99952,-14.9964,173.958)"
font-family="Ubuntu" font-size="11" font-weight="400" font-style="normal" 
>
</g>

<g fill="none" stroke="#000000" stroke-opacity="1" stroke-width="1" stroke-linecap="square" stroke-linejoin="bevel" transform="matrix(1.99952,0,0,1.99952,-14.9964,173.958)"
font-family="Ubuntu" font-size="11" font-weight="400" font-style="normal" 
>
</g>

<g fill="none" stroke="#000000" stroke-opacity="1" stroke-width="1" stroke-linecap="square" stroke-linejoin="bevel" transform="matrix(1.99952,0,0,1.99952,-14.9964,173.958)"
font-family="Ubuntu" font-size="11" font-weight="400" font-style="normal" 
>
</g>

<g fill="none" stroke="#000000" stroke-opacity="1" stroke-width="1" stroke-linecap="square" stroke-linejoin="round" transform="matrix(1.99952,0,0,1.99952,-14.9964,173.958)"
font-family="Ubuntu" font-size="11" font-weight="400" font-style="normal" 
>
<ellipse cx="649.83" cy="-34" rx="76.8424" ry="17.5"/>
</g>

<g fill="none" stroke="#000000" stroke-opacity="1" stroke-width="1" stroke-linecap="square" stroke-linejoin="bevel" transform="matrix(1.99952,0,0,1.99952,-14.9964,173.958)"
font-family="Ubuntu" font-size="11" font-weight="400" font-style="normal" 
>
</g>

<g fill="none" stroke="#000000" stroke-opacity="1" stroke-width="1" stroke-linecap="square" stroke-linejoin="bevel" transform="matrix(1.99952,0,0,1.99952,1182.22,91.978)"
font-family="Ubuntu" font-size="11" font-weight="400" font-style="normal" 
>
</g>

<g fill="none" stroke="#000000" stroke-opacity="1" stroke-width="1" stroke-linecap="square" stroke-linejoin="bevel" transform="matrix(1.99952,0,0,1.99952,1182.22,91.978)"
font-family="sans" font-size="11" font-weight="100" font-style="normal" 
>
</g>

<g fill="#000000" fill-opacity="1" stroke="#000000" stroke-opacity="1" stroke-width="1" stroke-linecap="square" stroke-linejoin="round" transform="matrix(1.99952,0,0,1.99952,1182.22,91.978)"
font-family="sans" font-size="11" font-weight="100" font-style="normal" 
>
<path vector-effect="none" fill-rule="nonzero" d="M2.96875,2.98438 L3.53125,2.98438 L0.734375,12.0156 L0.171875,12.0156 L2.96875,2.98438 M5.46875,3.28125 L5.46875,4.98438 L7.5,4.98438 L7.5,5.40625 L5.46875,5.40625 L5.46875,9.01563 C5.46875,9.47396 5.52604,9.79688 5.64063,9.98438 C5.89063,10.3802 6.25,10.5781 6.71875,10.5781 L7.5,10.5781 L7.5,11 L6.73438,11 C6.24479,11 5.82813,10.8568 5.48438,10.5703 C5.14063,10.2839 4.96875,9.76563 4.96875,9.01563 L4.96875,5.40625 L4.25,5.40625 L4.25,4.98438 L4.96875,4.98438 L4.96875,3.28125 L5.46875,3.28125 M13.9531,7.75 L13.9531,8.0625 L9.39063,8.0625 C9.39063,9.02083 9.57813,9.69792 9.95313,10.0938 C10.3698,10.5208 10.9844,10.7344 11.7969,10.7344 C12.0156,10.7344 12.3021,10.6875 12.6563,10.5938 C13.0104,10.5 13.3646,10.3594 13.7188,10.1719 L13.7188,10.6875 C13.3646,10.8438 13.0026,10.9609 12.6328,11.0391 C12.263,11.1172 11.9688,11.1563 11.75,11.1563 C10.8229,11.1563 10.125,10.9063 9.65625,10.4063 C9.14583,9.875 8.89063,9.09375 8.89063,8.0625 C8.89063,6.98958 9.11979,6.1875 9.57813,5.65625 C10.0573,5.11458 10.724,4.84375 11.5781,4.84375 C12.3594,4.84375 12.9531,5.10417 13.3594,5.625 C13.7552,6.16667 13.9531,6.875 13.9531,7.75 M13.4531,7.64063 C13.4531,6.79688 13.2604,6.18229 12.875,5.79688 C12.5625,5.45313 12.1302,5.28125 11.5781,5.28125 C10.9844,5.28125 10.4844,5.45833 10.0781,5.8125 C9.70313,6.14583 9.47917,6.75521 9.40625,7.64063 L13.4531,7.64063 M16.0313,2.64063 L16.5156,2.64063 L16.5156,11 L16.0313,11 L16.0313,2.64063 M23.7656,7.75 L23.7656,8.0625 L19.2031,8.0625 C19.2031,9.02083 19.3906,9.69792 19.7656,10.0938 C20.1823,10.5208 20.7969,10.7344 21.6094,10.7344 C21.8281,10.7344 22.1146,10.6875 22.4688,10.5938 C22.8229,10.5 23.1771,10.3594 23.5313,10.1719 L23.5313,10.6875 C23.1771,10.8438 22.8151,10.9609 22.4453,11.0391 C22.0755,11.1172 21.7813,11.1563 21.5625,11.1563 C20.6354,11.1563 19.9375,10.9063 19.4688,10.4063 C18.9583,9.875 18.7031,9.09375 18.7031,8.0625 C18.7031,6.98958 18.9323,6.1875 19.3906,5.65625 C19.8698,5.11458 20.5365,4.84375 21.3906,4.84375 C22.1719,4.84375 22.7656,5.10417 23.1719,5.625 C23.5677,6.16667 23.7656,6.875 23.7656,7.75 M23.2656,7.64063 C23.2656,6.79688 23.0729,6.18229 22.6875,5.79688 C22.375,5.45313 21.9427,5.28125 21.3906,5.28125 C20.7969,5.28125 20.2969,5.45833 19.8906,5.8125 C19.5156,6.14583 19.2917,6.75521 19.2188,7.64063 L23.2656,7.64063 M30.2031,13.1719 L30.2031,13.5938 L24.4844,13.5938 L24.4844,13.1719 L30.2031,13.1719 M30.7969,4.98438 L31.3125,4.98438 L33.3438,10.4531 L35.3906,4.98438 L35.9063,4.98438 L33.6719,11 L33.0313,11 L30.7969,4.98438 M42.5313,7.75 L42.5313,8.0625 L37.9688,8.0625 C37.9688,9.02083 38.1563,9.69792 38.5313,10.0938 C38.9479,10.5208 39.5625,10.7344 40.375,10.7344 C40.5938,10.7344 40.8802,10.6875 41.2344,10.5938 C41.5885,10.5 41.9427,10.3594 42.2969,10.1719 L42.2969,10.6875 C41.9427,10.8438 41.5807,10.9609 41.2109,11.0391 C40.8411,11.1172 40.5469,11.1563 40.3281,11.1563 C39.401,11.1563 38.7031,10.9063 38.2344,10.4063 C37.724,9.875 37.4688,9.09375 37.4688,8.0625 C37.4688,6.98958 37.6979,6.1875 38.1563,5.65625 C38.6354,5.11458 39.3021,4.84375 40.1563,4.84375 C40.9375,4.84375 41.5313,5.10417 41.9375,5.625 C42.3333,6.16667 42.5313,6.875 42.5313,7.75 M42.0313,7.64063 C42.0313,6.79688 41.8385,6.18229 41.4531,5.79688 C41.1406,5.45313 40.7083,5.28125 40.1563,5.28125 C39.5625,5.28125 39.0625,5.45833 38.6563,5.8125 C38.2813,6.14583 38.0573,6.75521 37.9844,7.64063 L42.0313,7.64063 M49.1563,7.375 L49.1563,11 L48.6563,11 L48.6563,7.40625 C48.6563,6.625 48.526,6.07552 48.2656,5.75781 C48.0052,5.4401 47.6094,5.28125 47.0781,5.28125 C46.4635,5.28125 45.9792,5.45833 45.625,5.8125 C45.2708,6.16667 45.0938,6.76042 45.0938,7.59375 L45.0938,11 L44.6094,11 L44.6094,2.64063 L45.0938,2.64063 L45.0938,6.09375 C45.2083,5.79167 45.4167,5.52083 45.7188,5.28125 C46.0625,4.98958 46.5521,4.84375 47.1875,4.84375 C47.7917,4.84375 48.2708,5.05729 48.625,5.48438 C48.9792,5.91146 49.1563,6.54167 49.1563,7.375 M51.5625,4.98438 L52.0625,4.98438 L52.0625,11 L51.5625,11 L51.5625,4.98438 M51.5625,2.64063 L52.0625,2.64063 L52.0625,3.3125 L51.5625,3.3125 L51.5625,2.64063 M58.7344,5.28125 L58.7344,5.79688 C58.4427,5.61979 58.1979,5.5 58,5.4375 C57.6667,5.33333 57.349,5.28125 57.0469,5.28125 C56.1823,5.28125 55.5625,5.5026 55.1875,5.94531 C54.8125,6.38802 54.625,7.07292 54.625,8 C54.625,8.9375 54.8125,9.6276 55.1875,10.0703 C55.5625,10.513 56.1823,10.7344 57.0469,10.7344 C57.3385,10.7344 57.6198,10.6927 57.8906,10.6094 C58.1823,10.5365 58.4635,10.4219 58.7344,10.2656 L58.7344,10.7656 C58.4635,10.901 58.1823,11 57.8906,11.0625 C57.5885,11.125 57.2917,11.1563 57,11.1563 C56.125,11.1563 55.4271,10.9167 54.9063,10.4375 C54.3854,9.95833 54.125,9.14323 54.125,7.99219 C54.125,6.84115 54.3854,6.02604 54.9063,5.54688 C55.4271,5.07813 56.125,4.84375 57,4.84375 C57.2917,4.84375 57.599,4.88542 57.9219,4.96875 C58.2448,5.04167 58.5156,5.14583 58.7344,5.28125 M60.6719,2.64063 L61.1563,2.64063 L61.1563,11 L60.6719,11 L60.6719,2.64063 M68.4063,7.75 L68.4063,8.0625 L63.8438,8.0625 C63.8438,9.02083 64.0313,9.69792 64.4063,10.0938 C64.8229,10.5208 65.4375,10.7344 66.25,10.7344 C66.4688,10.7344 66.7552,10.6875 67.1094,10.5938 C67.4635,10.5 67.8177,10.3594 68.1719,10.1719 L68.1719,10.6875 C67.8177,10.8438 67.4557,10.9609 67.0859,11.0391 C66.7161,11.1172 66.4219,11.1563 66.2031,11.1563 C65.276,11.1563 64.5781,10.9063 64.1094,10.4063 C63.599,9.875 63.3438,9.09375 63.3438,8.0625 C63.3438,6.98958 63.5729,6.1875 64.0313,5.65625 C64.5104,5.11458 65.1771,4.84375 66.0313,4.84375 C66.8125,4.84375 67.4063,5.10417 67.8125,5.625 C68.2083,6.16667 68.4063,6.875 68.4063,7.75 M67.9063,7.64063 C67.9063,6.79688 67.7135,6.18229 67.3281,5.79688 C67.0156,5.45313 66.5833,5.28125 66.0313,5.28125 C65.4375,5.28125 64.9375,5.45833 64.5313,5.8125 C64.1563,6.14583 63.9323,6.75521 63.8594,7.64063 L67.9063,7.64063 M74.8438,13.1719 L74.8438,13.5938 L69.125,13.5938 L69.125,13.1719 L74.8438,13.1719 M80.5313,7.375 L80.5313,11 L80.0313,11 L80.0313,7.40625 C80.0313,6.625 79.9063,6.07552 79.6563,5.75781 C79.4063,5.4401 79.0365,5.28125 78.5469,5.28125 C77.974,5.28125 77.4896,5.45313 77.0938,5.79688 C76.6771,6.14063 76.4688,6.73958 76.4688,7.59375 L76.4688,11 L75.9844,11 L75.9844,4.98438 L76.4688,4.98438 L76.4688,6.10938 C76.6458,5.74479 76.8802,5.46875 77.1719,5.28125 C77.5885,4.98958 78.0521,4.84375 78.5625,4.84375 C79.1667,4.84375 79.6458,5.04688 80,5.45313 C80.3542,5.84896 80.5313,6.48958 80.5313,7.375 M86.5313,6.01563 C86.1771,5.52604 85.6927,5.28125 85.0781,5.28125 C84.4635,5.28125 83.9792,5.52604 83.625,6.01563 C83.2708,6.49479 83.0938,7.15104 83.0938,7.98438 C83.0938,8.83854 83.2708,9.51042 83.625,10 C83.9792,10.4896 84.4635,10.7344 85.0781,10.7344 C85.6927,10.7344 86.1771,10.4896 86.5313,10 C86.8854,9.5 87.0625,8.82813 87.0625,7.98438 C87.0625,7.16146 86.8854,6.50521 86.5313,6.01563 M85.0781,4.84375 C85.8385,4.84375 86.4427,5.13021 86.8906,5.70313 C87.3385,6.27604 87.5625,7.03646 87.5625,7.98438 C87.5625,8.97396 87.3385,9.75521 86.8906,10.3281 C86.4427,10.901 85.8385,11.1875 85.0781,11.1875 C84.2969,11.1875 83.6823,10.901 83.2344,10.3281 C82.7969,9.75521 82.5781,8.97396 82.5781,7.98438 C82.5781,7.02604 82.8021,6.26302 83.25,5.69531 C83.6979,5.1276 84.3073,4.84375 85.0781,4.84375 M93.6719,6.35938 L93.6719,2.64063 L94.1406,2.64063 L94.1406,11 L93.6719,11 L93.6719,9.64063 C93.4427,10.1615 93.1927,10.5156 92.9219,10.7031 C92.526,11.0052 92.1458,11.1563 91.7813,11.1563 C91.0729,11.1563 90.4818,10.8672 90.0078,10.2891 C89.5339,9.71094 89.2969,8.94792 89.2969,8 C89.2969,7.05208 89.5339,6.28906 90.0078,5.71094 C90.4818,5.13281 91.0729,4.84375 91.7813,4.84375 C92.1458,4.84375 92.526,4.98958 92.9219,5.28125 C93.1927,5.47917 93.4427,5.83854 93.6719,6.35938 M90.4375,5.90625 C90.0208,6.32292 89.8125,7.02083 89.8125,8 C89.8125,8.97917 90.0208,9.67708 90.4375,10.0938 C90.8542,10.5104 91.2917,10.7188 91.75,10.7188 C92.1979,10.7188 92.6302,10.5104 93.0469,10.0938 C93.4531,9.67708 93.6563,8.97917 93.6563,8 C93.6563,7.02083 93.4531,6.32292 93.0469,5.90625 C92.6302,5.48958 92.1979,5.28125 91.75,5.28125 C91.2917,5.28125 90.8542,5.48958 90.4375,5.90625 M101.328,7.75 L101.328,8.0625 L96.7656,8.0625 C96.7656,9.02083 96.9531,9.69792 97.3281,10.0938 C97.7448,10.5208 98.3594,10.7344 99.1719,10.7344 C99.3906,10.7344 99.6771,10.6875 100.031,10.5938 C100.385,10.5 100.74,10.3594 101.094,10.1719 L101.094,10.6875 C100.74,10.8438 100.378,10.9609 100.008,11.0391 C99.638,11.1172 99.3438,11.1563 99.125,11.1563 C98.1979,11.1563 97.5,10.9063 97.0313,10.4063 C96.5208,9.875 96.2656,9.09375 96.2656,8.0625 C96.2656,6.98958 96.4948,6.1875 96.9531,5.65625 C97.4323,5.11458 98.099,4.84375 98.9531,4.84375 C99.7344,4.84375 100.328,5.10417 100.734,5.625 C101.13,6.16667 101.328,6.875 101.328,7.75 M100.828,7.64063 C100.828,6.79688 100.635,6.18229 100.25,5.79688 C99.9375,5.45313 99.5052,5.28125 98.9531,5.28125 C98.3594,5.28125 97.8594,5.45833 97.4531,5.8125 C97.0781,6.14583 96.8542,6.75521 96.7813,7.64063 L100.828,7.64063"/>
</g>

<g fill="none" stroke="#000000" stroke-opacity="1" stroke-width="1" stroke-linecap="square" stroke-linejoin="bevel" transform="matrix(1.99952,0,0,1.99952,1182.22,91.978)"
font-family="sans" font-size="11" font-weight="100" font-style="normal" 
>
</g>

<g fill="none" stroke="#000000" stroke-opacity="1" stroke-width="1" stroke-linecap="square" stroke-linejoin="bevel" transform="matrix(1.99952,0,0,1.99952,1182.22,91.978)"
font-family="Ubuntu" font-size="11" font-weight="400" font-style="normal" 
>
</g>

<g fill="none" stroke="#000000" stroke-opacity="1" stroke-width="1" stroke-linecap="square" stroke-linejoin="bevel" transform="matrix(1.99952,0,0,1.99952,-14.9964,173.958)"
font-family="Ubuntu" font-size="11" font-weight="400" font-style="normal" 
>
</g>

<g fill="none" stroke="#000000" stroke-opacity="1" stroke-width="1" stroke-linecap="square" stroke-linejoin="bevel" transform="matrix(1.99952,0,0,1.99952,-14.9964,173.958)"
font-family="Ubuntu" font-size="11" font-weight="400" font-style="normal" 
>
</g>

<g fill="none" stroke="#000000" stroke-opacity="1" stroke-width="1" stroke-linecap="square" stroke-linejoin="bevel" transform="matrix(1.99952,0,0,1.99952,-14.9964,173.958)"
font-family="Ubuntu" font-size="11" font-weight="400" font-style="normal" 
>
</g>

<g fill="none" stroke="#000000" stroke-opacity="1" stroke-width="1" stroke-linecap="square" stroke-linejoin="round" transform="matrix(1.99952,0,0,1.99952,-14.9964,173.958)"
font-family="Ubuntu" font-size="11" font-weight="400" font-style="normal" 
>
<ellipse cx="446.48" cy="-69" rx="35.896" ry="17.5"/>
</g>

<g fill="none" stroke="#000000" stroke-opacity="1" stroke-width="1" stroke-linecap="square" stroke-linejoin="bevel" transform="matrix(1.99952,0,0,1.99952,-14.9964,173.958)"
font-family="Ubuntu" font-size="11" font-weight="400" font-style="normal" 
>
</g>

<g fill="none" stroke="#000000" stroke-opacity="1" stroke-width="1" stroke-linecap="square" stroke-linejoin="bevel" transform="matrix(1.99952,0,0,1.99952,836.603,21.9947)"
font-family="Ubuntu" font-size="11" font-weight="400" font-style="normal" 
>
</g>

<g fill="none" stroke="#000000" stroke-opacity="1" stroke-width="1" stroke-linecap="square" stroke-linejoin="bevel" transform="matrix(1.99952,0,0,1.99952,836.603,21.9947)"
font-family="sans" font-size="11" font-weight="100" font-style="normal" 
>
</g>

<g fill="#000000" fill-opacity="1" stroke="#000000" stroke-opacity="1" stroke-width="1" stroke-linecap="square" stroke-linejoin="round" transform="matrix(1.99952,0,0,1.99952,836.603,21.9947)"
font-family="sans" font-size="11" font-weight="100" font-style="normal" 
>
<path vector-effect="none" fill-rule="nonzero" d="M2.96875,2.98438 L3.53125,2.98438 L0.734375,12.0156 L0.171875,12.0156 L2.96875,2.98438 M9.5,7.375 L9.5,11 L9,11 L9,7.40625 C9,6.625 8.86979,6.07552 8.60938,5.75781 C8.34896,5.4401 7.95313,5.28125 7.42188,5.28125 C6.80729,5.28125 6.32292,5.45833 5.96875,5.8125 C5.61458,6.16667 5.4375,6.76042 5.4375,7.59375 L5.4375,11 L4.95313,11 L4.95313,2.64063 L5.4375,2.64063 L5.4375,6.09375 C5.55208,5.79167 5.76042,5.52083 6.0625,5.28125 C6.40625,4.98958 6.89583,4.84375 7.53125,4.84375 C8.13542,4.84375 8.61458,5.05729 8.96875,5.48438 C9.32292,5.91146 9.5,6.54167 9.5,7.375 M14.3281,7.60938 C13.526,7.60938 12.9505,7.75 12.6016,8.03125 C12.2526,8.3125 12.0781,8.72396 12.0781,9.26563 C12.0781,9.79688 12.224,10.1745 12.5156,10.3984 C12.8073,10.6224 13.151,10.7344 13.5469,10.7344 C14.2969,10.7344 14.8385,10.4167 15.1719,9.78125 C15.5052,9.13542 15.6719,8.53125 15.6719,7.96875 L15.6719,7.60938 L14.3281,7.60938 M16.1719,7.5625 L16.1719,11 L15.6719,11 L15.6719,9.35938 C15.401,10.1615 15.0365,10.6719 14.5781,10.8906 C14.224,11.0677 13.8646,11.1563 13.5,11.1563 C12.9063,11.1563 12.4375,10.9948 12.0938,10.6719 C11.75,10.349 11.5781,9.8776 11.5781,9.25781 C11.5781,8.63802 11.8021,8.14063 12.25,7.76563 C12.6979,7.39063 13.4271,7.20313 14.4375,7.20313 L15.6719,7.20313 L15.6719,7.10938 C15.6719,6.57813 15.5156,6.14063 15.2031,5.79688 C14.9115,5.45313 14.4167,5.28125 13.7188,5.28125 C13.375,5.28125 13.026,5.34375 12.6719,5.46875 C12.4427,5.55208 12.1406,5.71875 11.7656,5.96875 L11.7656,5.4375 C12.0885,5.23958 12.3906,5.09896 12.6719,5.01563 C13.0677,4.90104 13.4479,4.84375 13.8125,4.84375 C14.5313,4.84375 15.1198,5.05729 15.5781,5.48438 C15.974,5.84896 16.1719,6.54167 16.1719,7.5625 M23.2031,7.375 L23.2031,11 L22.7031,11 L22.7031,7.40625 C22.7031,6.625 22.5781,6.07552 22.3281,5.75781 C22.0781,5.4401 21.7083,5.28125 21.2188,5.28125 C20.6458,5.28125 20.1615,5.45313 19.7656,5.79688 C19.349,6.14063 19.1406,6.73958 19.1406,7.59375 L19.1406,11 L18.6563,11 L18.6563,4.98438 L19.1406,4.98438 L19.1406,6.10938 C19.3177,5.74479 19.5521,5.46875 19.8438,5.28125 C20.2604,4.98958 20.724,4.84375 21.2344,4.84375 C21.8385,4.84375 22.3177,5.04688 22.6719,5.45313 C23.026,5.84896 23.2031,6.48958 23.2031,7.375 M29.625,6.35938 L29.625,2.64063 L30.0938,2.64063 L30.0938,11 L29.625,11 L29.625,9.64063 C29.3958,10.1615 29.1458,10.5156 28.875,10.7031 C28.4792,11.0052 28.099,11.1563 27.7344,11.1563 C27.026,11.1563 26.4349,10.8672 25.9609,10.2891 C25.487,9.71094 25.25,8.94792 25.25,8 C25.25,7.05208 25.487,6.28906 25.9609,5.71094 C26.4349,5.13281 27.026,4.84375 27.7344,4.84375 C28.099,4.84375 28.4792,4.98958 28.875,5.28125 C29.1458,5.47917 29.3958,5.83854 29.625,6.35938 M26.3906,5.90625 C25.974,6.32292 25.7656,7.02083 25.7656,8 C25.7656,8.97917 25.974,9.67708 26.3906,10.0938 C26.8073,10.5104 27.2448,10.7188 27.7031,10.7188 C28.151,10.7188 28.5833,10.5104 29,10.0938 C29.4063,9.67708 29.6094,8.97917 29.6094,8 C29.6094,7.02083 29.4063,6.32292 29,5.90625 C28.5833,5.48958 28.151,5.28125 27.7031,5.28125 C27.2448,5.28125 26.8073,5.48958 26.3906,5.90625 M32.5938,2.64063 L33.0781,2.64063 L33.0781,11 L32.5938,11 L32.5938,2.64063 M40.3281,7.75 L40.3281,8.0625 L35.7656,8.0625 C35.7656,9.02083 35.9531,9.69792 36.3281,10.0938 C36.7448,10.5208 37.3594,10.7344 38.1719,10.7344 C38.3906,10.7344 38.6771,10.6875 39.0313,10.5938 C39.3854,10.5 39.7396,10.3594 40.0938,10.1719 L40.0938,10.6875 C39.7396,10.8438 39.3776,10.9609 39.0078,11.0391 C38.638,11.1172 38.3438,11.1563 38.125,11.1563 C37.1979,11.1563 36.5,10.9063 36.0313,10.4063 C35.5208,9.875 35.2656,9.09375 35.2656,8.0625 C35.2656,6.98958 35.4948,6.1875 35.9531,5.65625 C36.4323,5.11458 37.099,4.84375 37.9531,4.84375 C38.7344,4.84375 39.3281,5.10417 39.7344,5.625 C40.1302,6.16667 40.3281,6.875 40.3281,7.75 M39.8281,7.64063 C39.8281,6.79688 39.6354,6.18229 39.25,5.79688 C38.9375,5.45313 38.5052,5.28125 37.9531,5.28125 C37.3594,5.28125 36.8594,5.45833 36.4531,5.8125 C36.0781,6.14583 35.8542,6.75521 35.7813,7.64063 L39.8281,7.64063"/>
</g>

<g fill="none" stroke="#000000" stroke-opacity="1" stroke-width="1" stroke-linecap="square" stroke-linejoin="bevel" transform="matrix(1.99952,0,0,1.99952,836.603,21.9947)"
font-family="sans" font-size="11" font-weight="100" font-style="normal" 
>
</g>

<g fill="none" stroke="#000000" stroke-opacity="1" stroke-width="1" stroke-linecap="square" stroke-linejoin="bevel" transform="matrix(1.99952,0,0,1.99952,836.603,21.9947)"
font-family="Ubuntu" font-size="11" font-weight="400" font-style="normal" 
>
</g>

<g fill="none" stroke="#000000" stroke-opacity="1" stroke-width="1" stroke-linecap="square" stroke-linejoin="bevel" transform="matrix(1.99952,0,0,1.99952,-14.9964,173.958)"
font-family="Ubuntu" font-size="11" font-weight="400" font-style="normal" 
>
</g>

<g fill="none" stroke="#000000" stroke-opacity="1" stroke-width="1" stroke-linecap="square" stroke-linejoin="bevel" transform="matrix(1.99952,0,0,1.99952,-14.9964,173.958)"
font-family="Ubuntu" font-size="11" font-weight="400" font-style="normal" 
>
</g>

<g fill="none" stroke="#000000" stroke-opacity="1" stroke-width="1" stroke-linecap="square" stroke-linejoin="bevel" transform="matrix(1.99952,0,0,1.99952,-14.9964,173.958)"
font-family="Ubuntu" font-size="11" font-weight="400" font-style="normal" 
>
</g>

<g fill="none" stroke="#000000" stroke-opacity="1" stroke-width="1" stroke-linecap="square" stroke-linejoin="round" transform="matrix(1.99952,0,0,1.99952,-14.9964,173.958)"
font-family="Ubuntu" font-size="11" font-weight="400" font-style="normal" 
>
<path vector-effect="none" fill-rule="evenodd" d="M277.18,-31.319 C310.86,-29.708 355.76,-27.817 395.48,-27 C440.81,-26.067 452.16,-25.959 497.48,-27 C519.08,-27.496 542.38,-28.387 564.11,-29.37 "/>
</g>

<g fill="none" stroke="#000000" stroke-opacity="1" stroke-width="1" stroke-linecap="square" stroke-linejoin="bevel" transform="matrix(1.99952,0,0,1.99952,-14.9964,173.958)"
font-family="Ubuntu" font-size="11" font-weight="400" font-style="normal" 
>
</g>

<g fill="none" stroke="#000000" stroke-opacity="1" stroke-width="1" stroke-linecap="square" stroke-linejoin="bevel" transform="matrix(1.99952,0,0,1.99952,776.118,90.9782)"
font-family="Ubuntu" font-size="11" font-weight="400" font-style="normal" 
>
</g>

<g fill="none" stroke="#000000" stroke-opacity="1" stroke-width="1" stroke-linecap="square" stroke-linejoin="bevel" transform="matrix(1.99952,0,0,1.99952,776.118,90.9782)"
font-family="sans" font-size="11" font-weight="100" font-style="normal" 
>
</g>

<g fill="#000000" fill-opacity="1" stroke="#000000" stroke-opacity="1" stroke-width="1" stroke-linecap="square" stroke-linejoin="round" transform="matrix(1.99952,0,0,1.99952,776.118,90.9782)"
font-family="sans" font-size="11" font-weight="100" font-style="normal" 
>
<path vector-effect="none" fill-rule="nonzero" d="M2.96875,2.98438 L3.53125,2.98438 L0.734375,12.0156 L0.171875,12.0156 L2.96875,2.98438 M8.53125,6.01563 C8.17708,5.52604 7.69271,5.28125 7.07813,5.28125 C6.46354,5.28125 5.97917,5.52604 5.625,6.01563 C5.27083,6.49479 5.09375,7.15104 5.09375,7.98438 C5.09375,8.83854 5.27083,9.51042 5.625,10 C5.97917,10.4896 6.46354,10.7344 7.07813,10.7344 C7.69271,10.7344 8.17708,10.4896 8.53125,10 C8.88542,9.5 9.0625,8.82813 9.0625,7.98438 C9.0625,7.16146 8.88542,6.50521 8.53125,6.01563 M7.07813,4.84375 C7.83854,4.84375 8.44271,5.13021 8.89063,5.70313 C9.33854,6.27604 9.5625,7.03646 9.5625,7.98438 C9.5625,8.97396 9.33854,9.75521 8.89063,10.3281 C8.44271,10.901 7.83854,11.1875 7.07813,11.1875 C6.29688,11.1875 5.68229,10.901 5.23438,10.3281 C4.79688,9.75521 4.57813,8.97396 4.57813,7.98438 C4.57813,7.02604 4.80208,6.26302 5.25,5.69531 C5.69792,5.1276 6.30729,4.84375 7.07813,4.84375 M12.1563,9.64063 L12.1563,13.2813 L11.6719,13.2813 L11.6719,4.98438 L12.1563,4.98438 L12.1563,6.35938 C12.3854,5.83854 12.6302,5.47917 12.8906,5.28125 C13.2969,4.98958 13.6823,4.84375 14.0469,4.84375 C14.7552,4.84375 15.3464,5.13281 15.8203,5.71094 C16.2943,6.28906 16.5313,7.05208 16.5313,8 C16.5313,8.94792 16.2943,9.71094 15.8203,10.2891 C15.3464,10.8672 14.7552,11.1563 14.0469,11.1563 C13.6823,11.1563 13.2969,11.0052 12.8906,10.7031 C12.6302,10.5156 12.3854,10.1615 12.1563,9.64063 M15.3906,10.0938 C15.8073,9.67708 16.0156,8.97917 16.0156,8 C16.0156,7.02083 15.8073,6.32292 15.3906,5.90625 C14.974,5.48958 14.5365,5.28125 14.0781,5.28125 C13.6302,5.28125 13.1979,5.48958 12.7813,5.90625 C12.375,6.32292 12.1719,7.02083 12.1719,8 C12.1719,8.97917 12.375,9.67708 12.7813,10.0938 C13.1979,10.5104 13.6302,10.7188 14.0781,10.7188 C14.5365,10.7188 14.974,10.5104 15.3906,10.0938 M23.3281,7.75 L23.3281,8.0625 L18.7656,8.0625 C18.7656,9.02083 18.9531,9.69792 19.3281,10.0938 C19.7448,10.5208 20.3594,10.7344 21.1719,10.7344 C21.3906,10.7344 21.6771,10.6875 22.0313,10.5938 C22.3854,10.5 22.7396,10.3594 23.0938,10.1719 L23.0938,10.6875 C22.7396,10.8438 22.3776,10.9609 22.0078,11.0391 C21.638,11.1172 21.3438,11.1563 21.125,11.1563 C20.1979,11.1563 19.5,10.9063 19.0313,10.4063 C18.5208,9.875 18.2656,9.09375 18.2656,8.0625 C18.2656,6.98958 18.4948,6.1875 18.9531,5.65625 C19.4323,5.11458 20.099,4.84375 20.9531,4.84375 C21.7344,4.84375 22.3281,5.10417 22.7344,5.625 C23.1302,6.16667 23.3281,6.875 23.3281,7.75 M22.8281,7.64063 C22.8281,6.79688 22.6354,6.18229 22.25,5.79688 C21.9375,5.45313 21.5052,5.28125 20.9531,5.28125 C20.3594,5.28125 19.8594,5.45833 19.4531,5.8125 C19.0781,6.14583 18.8542,6.75521 18.7813,7.64063 L22.8281,7.64063 M28.6719,5.40625 C28.5885,5.36458 28.4792,5.33333 28.3438,5.3125 C28.2188,5.29167 28.0677,5.28125 27.8906,5.28125 C27.276,5.28125 26.7708,5.50521 26.375,5.95313 C26.0521,6.31771 25.8906,6.94271 25.8906,7.82813 L25.8906,11 L25.4063,11 L25.4063,4.98438 L25.8906,4.98438 L25.8906,6.10938 C26.0573,5.78646 26.2865,5.51563 26.5781,5.29688 C26.974,4.99479 27.4427,4.84375 27.9844,4.84375 C28.1302,4.84375 28.2552,4.84896 28.3594,4.85938 C28.4635,4.85938 28.5677,4.86979 28.6719,4.89063 L28.6719,5.40625 M32.3281,7.60938 C31.526,7.60938 30.9505,7.75 30.6016,8.03125 C30.2526,8.3125 30.0781,8.72396 30.0781,9.26563 C30.0781,9.79688 30.224,10.1745 30.5156,10.3984 C30.8073,10.6224 31.151,10.7344 31.5469,10.7344 C32.2969,10.7344 32.8385,10.4167 33.1719,9.78125 C33.5052,9.13542 33.6719,8.53125 33.6719,7.96875 L33.6719,7.60938 L32.3281,7.60938 M34.1719,7.5625 L34.1719,11 L33.6719,11 L33.6719,9.35938 C33.401,10.1615 33.0365,10.6719 32.5781,10.8906 C32.224,11.0677 31.8646,11.1563 31.5,11.1563 C30.9063,11.1563 30.4375,10.9948 30.0938,10.6719 C29.75,10.349 29.5781,9.8776 29.5781,9.25781 C29.5781,8.63802 29.8021,8.14063 30.25,7.76563 C30.6979,7.39063 31.4271,7.20313 32.4375,7.20313 L33.6719,7.20313 L33.6719,7.10938 C33.6719,6.57813 33.5156,6.14063 33.2031,5.79688 C32.9115,5.45313 32.4167,5.28125 31.7188,5.28125 C31.375,5.28125 31.026,5.34375 30.6719,5.46875 C30.4427,5.55208 30.1406,5.71875 29.7656,5.96875 L29.7656,5.4375 C30.0885,5.23958 30.3906,5.09896 30.6719,5.01563 C31.0677,4.90104 31.4479,4.84375 31.8125,4.84375 C32.5313,4.84375 33.1198,5.05729 33.5781,5.48438 C33.974,5.84896 34.1719,6.54167 34.1719,7.5625 M37.1719,3.28125 L37.1719,4.98438 L39.2031,4.98438 L39.2031,5.40625 L37.1719,5.40625 L37.1719,9.01563 C37.1719,9.47396 37.2292,9.79688 37.3438,9.98438 C37.5938,10.3802 37.9531,10.5781 38.4219,10.5781 L39.2031,10.5781 L39.2031,11 L38.4375,11 C37.9479,11 37.5313,10.8568 37.1875,10.5703 C36.8438,10.2839 36.6719,9.76563 36.6719,9.01563 L36.6719,5.40625 L35.9531,5.40625 L35.9531,4.98438 L36.6719,4.98438 L36.6719,3.28125 L37.1719,3.28125 M44.5469,6.01563 C44.1927,5.52604 43.7083,5.28125 43.0938,5.28125 C42.4792,5.28125 41.9948,5.52604 41.6406,6.01563 C41.2865,6.49479 41.1094,7.15104 41.1094,7.98438 C41.1094,8.83854 41.2865,9.51042 41.6406,10 C41.9948,10.4896 42.4792,10.7344 43.0938,10.7344 C43.7083,10.7344 44.1927,10.4896 44.5469,10 C44.901,9.5 45.0781,8.82813 45.0781,7.98438 C45.0781,7.16146 44.901,6.50521 44.5469,6.01563 M43.0938,4.84375 C43.8542,4.84375 44.4583,5.13021 44.9063,5.70313 C45.3542,6.27604 45.5781,7.03646 45.5781,7.98438 C45.5781,8.97396 45.3542,9.75521 44.9063,10.3281 C44.4583,10.901 43.8542,11.1875 43.0938,11.1875 C42.3125,11.1875 41.6979,10.901 41.25,10.3281 C40.8125,9.75521 40.5938,8.97396 40.5938,7.98438 C40.5938,7.02604 40.8177,6.26302 41.2656,5.69531 C41.7135,5.1276 42.3229,4.84375 43.0938,4.84375 M50.9531,5.40625 C50.8698,5.36458 50.7604,5.33333 50.625,5.3125 C50.5,5.29167 50.349,5.28125 50.1719,5.28125 C49.5573,5.28125 49.0521,5.50521 48.6563,5.95313 C48.3333,6.31771 48.1719,6.94271 48.1719,7.82813 L48.1719,11 L47.6875,11 L47.6875,4.98438 L48.1719,4.98438 L48.1719,6.10938 C48.3385,5.78646 48.5677,5.51563 48.8594,5.29688 C49.2552,4.99479 49.724,4.84375 50.2656,4.84375 C50.4115,4.84375 50.5365,4.84896 50.6406,4.85938 C50.7448,4.85938 50.849,4.86979 50.9531,4.89063 L50.9531,5.40625 M53.9219,2.98438 L54.4844,2.98438 L51.6875,12.0156 L51.125,12.0156 L53.9219,2.98438 M56.3906,9.64063 L56.3906,13.2813 L55.9063,13.2813 L55.9063,4.98438 L56.3906,4.98438 L56.3906,6.35938 C56.6198,5.83854 56.8646,5.47917 57.125,5.28125 C57.5313,4.98958 57.9167,4.84375 58.2813,4.84375 C58.9896,4.84375 59.5807,5.13281 60.0547,5.71094 C60.5286,6.28906 60.7656,7.05208 60.7656,8 C60.7656,8.94792 60.5286,9.71094 60.0547,10.2891 C59.5807,10.8672 58.9896,11.1563 58.2813,11.1563 C57.9167,11.1563 57.5313,11.0052 57.125,10.7031 C56.8646,10.5156 56.6198,10.1615 56.3906,9.64063 M59.625,10.0938 C60.0417,9.67708 60.25,8.97917 60.25,8 C60.25,7.02083 60.0417,6.32292 59.625,5.90625 C59.2083,5.48958 58.7708,5.28125 58.3125,5.28125 C57.8646,5.28125 57.4323,5.48958 57.0156,5.90625 C56.6094,6.32292 56.4063,7.02083 56.4063,8 C56.4063,8.97917 56.6094,9.67708 57.0156,10.0938 C57.4323,10.5104 57.8646,10.7188 58.3125,10.7188 C58.7708,10.7188 59.2083,10.5104 59.625,10.0938 M62.8125,8.60938 L62.8125,4.98438 L63.2969,4.98438 L63.2969,8.57813 C63.2969,9.35938 63.4219,9.90885 63.6719,10.2266 C63.9219,10.5443 64.2917,10.7031 64.7813,10.7031 C65.3542,10.7031 65.8438,10.5313 66.25,10.1875 C66.6563,9.84375 66.8594,9.24479 66.8594,8.39063 L66.8594,4.98438 L67.3438,4.98438 L67.3438,11 L66.8594,11 L66.8594,9.875 C66.6823,10.2396 66.4479,10.5156 66.1563,10.7031 C65.7396,10.9948 65.276,11.1406 64.7656,11.1406 C64.1719,11.1406 63.6979,10.9375 63.3438,10.5313 C62.9896,10.1354 62.8125,9.49479 62.8125,8.60938 M73.5625,10.0938 C73.9792,9.67708 74.1875,8.97917 74.1875,8 C74.1875,7.02083 73.9792,6.32292 73.5625,5.90625 C73.1458,5.48958 72.7083,5.28125 72.25,5.28125 C71.8021,5.28125 71.3698,5.48958 70.9531,5.90625 C70.5469,6.32292 70.3438,7.02083 70.3438,8 C70.3438,8.97917 70.5469,9.67708 70.9531,10.0938 C71.3698,10.5104 71.8021,10.7188 72.25,10.7188 C72.7083,10.7188 73.1458,10.5104 73.5625,10.0938 M70.3281,6.35938 C70.5573,5.83854 70.8021,5.47917 71.0625,5.28125 C71.4688,4.98958 71.8542,4.84375 72.2188,4.84375 C72.9271,4.84375 73.5182,5.13281 73.9922,5.71094 C74.4661,6.28906 74.7031,7.05208 74.7031,8 C74.7031,8.94792 74.4661,9.71094 73.9922,10.2891 C73.5182,10.8672 72.9271,11.1563 72.2188,11.1563 C71.8542,11.1563 71.4688,11.0052 71.0625,10.7031 C70.8021,10.5156 70.5573,10.1615 70.3281,9.64063 L70.3281,11 L69.8438,11 L69.8438,2.64063 L70.3281,2.64063 L70.3281,6.35938 M81.1719,13.1719 L81.1719,13.5938 L75.4531,13.5938 L75.4531,13.1719 L81.1719,13.1719 M82.2969,4.98438 L82.7969,4.98438 L82.7969,11 L82.2969,11 L82.2969,4.98438 M82.2969,2.64063 L82.7969,2.64063 L82.7969,3.3125 L82.2969,3.3125 L82.2969,2.64063 M89.9063,7.375 L89.9063,11 L89.4063,11 L89.4063,7.40625 C89.4063,6.625 89.2813,6.07552 89.0313,5.75781 C88.7813,5.4401 88.4115,5.28125 87.9219,5.28125 C87.349,5.28125 86.8646,5.45313 86.4688,5.79688 C86.0521,6.14063 85.8438,6.73958 85.8438,7.59375 L85.8438,11 L85.3594,11 L85.3594,4.98438 L85.8438,4.98438 L85.8438,6.10938 C86.0208,5.74479 86.2552,5.46875 86.5469,5.28125 C86.9635,4.98958 87.4271,4.84375 87.9375,4.84375 C88.5417,4.84375 89.0208,5.04688 89.375,5.45313 C89.7292,5.84896 89.9063,6.48958 89.9063,7.375 M94.9063,2.64063 L94.9063,3.0625 L94.2188,3.0625 C93.8542,3.0625 93.5729,3.15625 93.375,3.34375 C93.1354,3.57292 93.0156,3.94271 93.0156,4.45313 L93.0156,4.98438 L94.6406,4.98438 L94.6406,5.40625 L93.0156,5.40625 L93.0156,11 L92.5156,11 L92.5156,5.40625 L91.5781,5.40625 L91.5781,4.98438 L92.5156,4.98438 L92.5156,4.5625 C92.5156,3.89583 92.6719,3.41146 92.9844,3.10938 C93.2865,2.79688 93.6979,2.64063 94.2188,2.64063 L94.9063,2.64063 M99.7656,6.01563 C99.4115,5.52604 98.9271,5.28125 98.3125,5.28125 C97.6979,5.28125 97.2135,5.52604 96.8594,6.01563 C96.5052,6.49479 96.3281,7.15104 96.3281,7.98438 C96.3281,8.83854 96.5052,9.51042 96.8594,10 C97.2135,10.4896 97.6979,10.7344 98.3125,10.7344 C98.9271,10.7344 99.4115,10.4896 99.7656,10 C100.12,9.5 100.297,8.82813 100.297,7.98438 C100.297,7.16146 100.12,6.50521 99.7656,6.01563 M98.3125,4.84375 C99.0729,4.84375 99.6771,5.13021 100.125,5.70313 C100.573,6.27604 100.797,7.03646 100.797,7.98438 C100.797,8.97396 100.573,9.75521 100.125,10.3281 C99.6771,10.901 99.0729,11.1875 98.3125,11.1875 C97.5313,11.1875 96.9167,10.901 96.4688,10.3281 C96.0313,9.75521 95.8125,8.97396 95.8125,7.98438 C95.8125,7.02604 96.0365,6.26302 96.4844,5.69531 C96.9323,5.1276 97.5417,4.84375 98.3125,4.84375 "/>
</g>

<g fill="none" stroke="#000000" stroke-opacity="1" stroke-width="1" stroke-linecap="square" stroke-linejoin="bevel" transform="matrix(1.99952,0,0,1.99952,776.118,90.9782)"
font-family="sans" font-size="11" font-weight="100" font-style="normal" 
>
</g>

<g fill="none" stroke="#000000" stroke-opacity="1" stroke-width="1" stroke-linecap="square" stroke-linejoin="bevel" transform="matrix(1.99952,0,0,1.99952,776.118,90.9782)"
font-family="Ubuntu" font-size="11" font-weight="400" font-style="normal" 
>
</g>

<g fill="none" stroke="#000000" stroke-opacity="1" stroke-width="1" stroke-linecap="square" stroke-linejoin="bevel" transform="matrix(1.99952,0,0,1.99952,-14.9964,173.958)"
font-family="Ubuntu" font-size="11" font-weight="400" font-style="normal" 
>
</g>

<g fill="#000000" fill-opacity="1" stroke="#000000" stroke-opacity="1" stroke-width="1" stroke-linecap="square" stroke-linejoin="round" transform="matrix(1.99952,0,0,1.99952,-14.9964,173.958)"
font-family="Ubuntu" font-size="11" font-weight="400" font-style="normal" 
>
<path vector-effect="none" fill-rule="evenodd" d="M564.11,-29.37 L564.276,-25.8035 L574.3,-29.843 L563.944,-32.9365 L564.11,-29.37"/>
</g>

<g fill="none" stroke="#000000" stroke-opacity="1" stroke-width="1" stroke-linecap="square" stroke-linejoin="bevel" transform="matrix(1.99952,0,0,1.99952,-14.9964,173.958)"
font-family="Ubuntu" font-size="11" font-weight="400" font-style="normal" 
>
</g>

<g fill="none" stroke="#000000" stroke-opacity="1" stroke-width="1" stroke-linecap="square" stroke-linejoin="bevel" transform="matrix(1.99952,0,0,1.99952,-14.9964,173.958)"
font-family="Ubuntu" font-size="11" font-weight="400" font-style="normal" 
>
</g>

<g fill="none" stroke="#000000" stroke-opacity="1" stroke-width="1" stroke-linecap="square" stroke-linejoin="bevel" transform="matrix(1.99952,0,0,1.99952,-14.9964,173.958)"
font-family="Ubuntu" font-size="11" font-weight="400" font-style="normal" 
>
</g>

<g fill="none" stroke="#000000" stroke-opacity="1" stroke-width="1" stroke-linecap="square" stroke-linejoin="bevel" transform="matrix(1.99952,0,0,1.99952,-14.9964,173.958)"
font-family="Ubuntu" font-size="11" font-weight="400" font-style="normal" 
>
</g>

<g fill="none" stroke="#000000" stroke-opacity="1" stroke-width="1" stroke-linecap="square" stroke-linejoin="round" transform="matrix(1.99952,0,0,1.99952,-14.9964,173.958)"
font-family="Ubuntu" font-size="11" font-weight="400" font-style="normal" 
>
<path vector-effect="none" fill-rule="evenodd" d="M480.98,-63.063 C507.37,-58.52 544.69,-52.097 577.53,-46.443 "/>
</g>

<g fill="none" stroke="#000000" stroke-opacity="1" stroke-width="1" stroke-linecap="square" stroke-linejoin="bevel" transform="matrix(1.99952,0,0,1.99952,-14.9964,173.958)"
font-family="Ubuntu" font-size="11" font-weight="400" font-style="normal" 
>
</g>

<g fill="none" stroke="#000000" stroke-opacity="1" stroke-width="1" stroke-linecap="square" stroke-linejoin="bevel" transform="matrix(1.99952,0,0,1.99952,997.674,28.9931)"
font-family="Ubuntu" font-size="11" font-weight="400" font-style="normal" 
>
</g>

<g fill="none" stroke="#000000" stroke-opacity="1" stroke-width="1" stroke-linecap="square" stroke-linejoin="bevel" transform="matrix(1.99952,0,0,1.99952,997.674,28.9931)"
font-family="sans" font-size="11" font-weight="100" font-style="normal" 
>
</g>

<g fill="#000000" fill-opacity="1" stroke="#000000" stroke-opacity="1" stroke-width="1" stroke-linecap="square" stroke-linejoin="round" transform="matrix(1.99952,0,0,1.99952,997.674,28.9931)"
font-family="sans" font-size="11" font-weight="100" font-style="normal" 
>
<path vector-effect="none" fill-rule="nonzero" d="M2.96875,2.98438 L3.53125,2.98438 L0.734375,12.0156 L0.171875,12.0156 L2.96875,2.98438 M4.95313,2.64063 L5.4375,2.64063 L5.4375,11 L4.95313,11 L4.95313,2.64063 M7.98438,4.98438 L8.48438,4.98438 L8.48438,11 L7.98438,11 L7.98438,4.98438 M7.98438,2.64063 L8.48438,2.64063 L8.48438,3.3125 L7.98438,3.3125 L7.98438,2.64063 M15.5938,7.375 L15.5938,11 L15.0938,11 L15.0938,7.40625 C15.0938,6.625 14.9688,6.07552 14.7188,5.75781 C14.4688,5.4401 14.099,5.28125 13.6094,5.28125 C13.0365,5.28125 12.5521,5.45313 12.1563,5.79688 C11.7396,6.14063 11.5313,6.73958 11.5313,7.59375 L11.5313,11 L11.0469,11 L11.0469,4.98438 L11.5313,4.98438 L11.5313,6.10938 C11.7083,5.74479 11.9427,5.46875 12.2344,5.28125 C12.651,4.98958 13.1146,4.84375 13.625,4.84375 C14.2292,4.84375 14.7083,5.04688 15.0625,5.45313 C15.4167,5.84896 15.5938,6.48958 15.5938,7.375 M22.7031,7.75 L22.7031,8.0625 L18.1406,8.0625 C18.1406,9.02083 18.3281,9.69792 18.7031,10.0938 C19.1198,10.5208 19.7344,10.7344 20.5469,10.7344 C20.7656,10.7344 21.0521,10.6875 21.4063,10.5938 C21.7604,10.5 22.1146,10.3594 22.4688,10.1719 L22.4688,10.6875 C22.1146,10.8438 21.7526,10.9609 21.3828,11.0391 C21.013,11.1172 20.7188,11.1563 20.5,11.1563 C19.5729,11.1563 18.875,10.9063 18.4063,10.4063 C17.8958,9.875 17.6406,9.09375 17.6406,8.0625 C17.6406,6.98958 17.8698,6.1875 18.3281,5.65625 C18.8073,5.11458 19.474,4.84375 20.3281,4.84375 C21.1094,4.84375 21.7031,5.10417 22.1094,5.625 C22.5052,6.16667 22.7031,6.875 22.7031,7.75 M22.2031,7.64063 C22.2031,6.79688 22.0104,6.18229 21.625,5.79688 C21.3125,5.45313 20.8802,5.28125 20.3281,5.28125 C19.7344,5.28125 19.2344,5.45833 18.8281,5.8125 C18.4531,6.14583 18.2292,6.75521 18.1563,7.64063 L22.2031,7.64063 M29.1406,13.1719 L29.1406,13.5938 L23.4219,13.5938 L23.4219,13.1719 L29.1406,13.1719 M30.7656,9.64063 L30.7656,13.2813 L30.2813,13.2813 L30.2813,4.98438 L30.7656,4.98438 L30.7656,6.35938 C30.9948,5.83854 31.2396,5.47917 31.5,5.28125 C31.9063,4.98958 32.2917,4.84375 32.6563,4.84375 C33.3646,4.84375 33.9557,5.13281 34.4297,5.71094 C34.9036,6.28906 35.1406,7.05208 35.1406,8 C35.1406,8.94792 34.9036,9.71094 34.4297,10.2891 C33.9557,10.8672 33.3646,11.1563 32.6563,11.1563 C32.2917,11.1563 31.9063,11.0052 31.5,10.7031 C31.2396,10.5156 30.9948,10.1615 30.7656,9.64063 M34,10.0938 C34.4167,9.67708 34.625,8.97917 34.625,8 C34.625,7.02083 34.4167,6.32292 34,5.90625 C33.5833,5.48958 33.1458,5.28125 32.6875,5.28125 C32.2396,5.28125 31.8073,5.48958 31.3906,5.90625 C30.9844,6.32292 30.7813,7.02083 30.7813,8 C30.7813,8.97917 30.9844,9.67708 31.3906,10.0938 C31.8073,10.5104 32.2396,10.7188 32.6875,10.7188 C33.1458,10.7188 33.5833,10.5104 34,10.0938 M40.8281,6.01563 C40.474,5.52604 39.9896,5.28125 39.375,5.28125 C38.7604,5.28125 38.276,5.52604 37.9219,6.01563 C37.5677,6.49479 37.3906,7.15104 37.3906,7.98438 C37.3906,8.83854 37.5677,9.51042 37.9219,10 C38.276,10.4896 38.7604,10.7344 39.375,10.7344 C39.9896,10.7344 40.474,10.4896 40.8281,10 C41.1823,9.5 41.3594,8.82813 41.3594,7.98438 C41.3594,7.16146 41.1823,6.50521 40.8281,6.01563 M39.375,4.84375 C40.1354,4.84375 40.7396,5.13021 41.1875,5.70313 C41.6354,6.27604 41.8594,7.03646 41.8594,7.98438 C41.8594,8.97396 41.6354,9.75521 41.1875,10.3281 C40.7396,10.901 40.1354,11.1875 39.375,11.1875 C38.5938,11.1875 37.9792,10.901 37.5313,10.3281 C37.0938,9.75521 36.875,8.97396 36.875,7.98438 C36.875,7.02604 37.099,6.26302 37.5469,5.69531 C37.9948,5.1276 38.6042,4.84375 39.375,4.84375 M43.9531,4.98438 L44.4531,4.98438 L44.4531,11 L43.9531,11 L43.9531,4.98438 M43.9531,2.64063 L44.4531,2.64063 L44.4531,3.3125 L43.9531,3.3125 L43.9531,2.64063 M51.5625,7.375 L51.5625,11 L51.0625,11 L51.0625,7.40625 C51.0625,6.625 50.9375,6.07552 50.6875,5.75781 C50.4375,5.4401 50.0677,5.28125 49.5781,5.28125 C49.0052,5.28125 48.5208,5.45313 48.125,5.79688 C47.7083,6.14063 47.5,6.73958 47.5,7.59375 L47.5,11 L47.0156,11 L47.0156,4.98438 L47.5,4.98438 L47.5,6.10938 C47.6771,5.74479 47.9115,5.46875 48.2031,5.28125 C48.6198,4.98958 49.0833,4.84375 49.5938,4.84375 C50.1979,4.84375 50.6771,5.04688 51.0313,5.45313 C51.3854,5.84896 51.5625,6.48958 51.5625,7.375 M54.5,3.28125 L54.5,4.98438 L56.5313,4.98438 L56.5313,5.40625 L54.5,5.40625 L54.5,9.01563 C54.5,9.47396 54.5573,9.79688 54.6719,9.98438 C54.9219,10.3802 55.2813,10.5781 55.75,10.5781 L56.5313,10.5781 L56.5313,11 L55.7656,11 C55.276,11 54.8594,10.8568 54.5156,10.5703 C54.1719,10.2839 54,9.76563 54,9.01563 L54,5.40625 L53.2813,5.40625 L53.2813,4.98438 L54,4.98438 L54,3.28125 L54.5,3.28125"/>
</g>

<g fill="none" stroke="#000000" stroke-opacity="1" stroke-width="1" stroke-linecap="square" stroke-linejoin="bevel" transform="matrix(1.99952,0,0,1.99952,997.674,28.9931)"
font-family="sans" font-size="11" font-weight="100" font-style="normal" 
>
</g>

<g fill="none" stroke="#000000" stroke-opacity="1" stroke-width="1" stroke-linecap="square" stroke-linejoin="bevel" transform="matrix(1.99952,0,0,1.99952,997.674,28.9931)"
font-family="Ubuntu" font-size="11" font-weight="400" font-style="normal" 
>
</g>

<g fill="none" stroke="#000000" stroke-opacity="1" stroke-width="1" stroke-linecap="square" stroke-linejoin="bevel" transform="matrix(1.99952,0,0,1.99952,-14.9964,173.958)"
font-family="Ubuntu" font-size="11" font-weight="400" font-style="normal" 
>
</g>

<g fill="#000000" fill-opacity="1" stroke="#000000" stroke-opacity="1" stroke-width="1" stroke-linecap="square" stroke-linejoin="round" transform="matrix(1.99952,0,0,1.99952,-14.9964,173.958)"
font-family="Ubuntu" font-size="11" font-weight="400" font-style="normal" 
>
<path vector-effect="none" fill-rule="evenodd" d="M577.53,-46.443 L576.926,-42.929 L587.57,-44.716 L578.134,-49.957 L577.53,-46.443"/>
</g>

<g fill="none" stroke="#000000" stroke-opacity="1" stroke-width="1" stroke-linecap="square" stroke-linejoin="bevel" transform="matrix(1.99952,0,0,1.99952,-14.9964,173.958)"
font-family="Ubuntu" font-size="11" font-weight="400" font-style="normal" 
>
</g>

<g fill="none" stroke="#000000" stroke-opacity="1" stroke-width="1" stroke-linecap="square" stroke-linejoin="bevel" transform="matrix(1.99952,0,0,1.99952,-14.9964,173.958)"
font-family="Ubuntu" font-size="11" font-weight="400" font-style="normal" 
>
</g>

<g fill="none" stroke="#000000" stroke-opacity="1" stroke-width="1" stroke-linecap="square" stroke-linejoin="bevel" transform="matrix(1.99952,0,0,1.99952,-14.9964,173.958)"
font-family="Ubuntu" font-size="11" font-weight="400" font-style="normal" 
>
</g>

<g fill="none" stroke="#000000" stroke-opacity="1" stroke-width="1" stroke-linecap="square" stroke-linejoin="bevel" transform="matrix(1.99952,0,0,1.99952,-14.9964,173.958)"
font-family="Ubuntu" font-size="11" font-weight="400" font-style="normal" 
>
</g>

<g fill="none" stroke="#000000" stroke-opacity="1" stroke-width="1" stroke-linecap="square" stroke-linejoin="round" transform="matrix(1.99952,0,0,1.99952,-14.9964,173.958)"
font-family="Ubuntu" font-size="11" font-weight="400" font-style="normal" 
>
<path vector-effect="none" fill-rule="evenodd" d="M100.88,-34 C119.84,-34 142.54,-34 163.34,-34 "/>
</g>

<g fill="none" stroke="#000000" stroke-opacity="1" stroke-width="1" stroke-linecap="square" stroke-linejoin="bevel" transform="matrix(1.99952,0,0,1.99952,-14.9964,173.958)"
font-family="Ubuntu" font-size="11" font-weight="400" font-style="normal" 
>
</g>

<g fill="none" stroke="#000000" stroke-opacity="1" stroke-width="1" stroke-linecap="square" stroke-linejoin="bevel" transform="matrix(1.99952,0,0,1.99952,220.771,76.9816)"
font-family="Ubuntu" font-size="11" font-weight="400" font-style="normal" 
>
</g>

<g fill="none" stroke="#000000" stroke-opacity="1" stroke-width="1" stroke-linecap="square" stroke-linejoin="bevel" transform="matrix(1.99952,0,0,1.99952,220.771,76.9816)"
font-family="sans" font-size="11" font-weight="100" font-style="normal" 
>
</g>

<g fill="#000000" fill-opacity="1" stroke="#000000" stroke-opacity="1" stroke-width="1" stroke-linecap="square" stroke-linejoin="round" transform="matrix(1.99952,0,0,1.99952,220.771,76.9816)"
font-family="sans" font-size="11" font-weight="100" font-style="normal" 
>
<path vector-effect="none" fill-rule="nonzero" d="M2.96875,2.98438 L3.53125,2.98438 L0.734375,12.0156 L0.171875,12.0156 L2.96875,2.98438 M10.5313,10.3125 L10.5313,7.51563 L8.48438,7.51563 L8.48438,7.0625 L11.0625,7.0625 L11.0625,10.5781 C10.6771,10.7656 10.2552,10.9063 9.79688,11 C9.33854,11.0938 8.84896,11.1458 8.32813,11.1563 C7.16146,11.1563 6.25521,10.7865 5.60938,10.0469 C4.95313,9.31771 4.625,8.30208 4.625,7 C4.625,5.6875 4.95313,4.66667 5.60938,3.9375 C6.25521,3.19792 7.16146,2.82813 8.32813,2.82813 C8.80729,2.82813 9.26042,2.88021 9.6875,2.98438 C10.1146,3.08854 10.5052,3.23958 10.8594,3.4375 L10.8594,3.95313 C10.5052,3.75521 10.1198,3.60417 9.70313,3.5 C9.29688,3.39583 8.86458,3.34375 8.40625,3.34375 C7.33333,3.34375 6.52604,3.65104 5.98438,4.26563 C5.44271,4.88021 5.17188,5.79167 5.17188,7 C5.17188,8.22917 5.44271,9.15104 5.98438,9.76563 C6.52604,10.3906 7.33333,10.7031 8.40625,10.7031 C8.85417,10.7031 9.25,10.6719 9.59375,10.6094 C9.9375,10.5469 10.25,10.4479 10.5313,10.3125 M13.5469,10.5625 L18.1094,10.5625 L18.1094,11 L12.9844,11 L12.9844,10.4375 L14.9844,8.35938 C15.474,7.85938 15.9219,7.39583 16.3281,6.96875 C16.6927,6.57292 16.9375,6.26563 17.0625,6.04688 C17.1875,5.82813 17.25,5.53646 17.25,5.17188 C17.25,4.55729 17.0625,4.0625 16.6875,3.6875 C16.4167,3.41667 15.974,3.28125 15.3594,3.28125 C14.9948,3.28125 14.5833,3.38542 14.125,3.59375 C13.9167,3.6875 13.5677,3.89063 13.0781,4.20313 L13.0781,3.64063 C13.2865,3.49479 13.5885,3.32813 13.9844,3.14063 C14.4427,2.94271 14.8958,2.83854 15.3438,2.82813 C16.0313,2.82813 16.6094,3.01042 17.0781,3.375 C17.5365,3.72917 17.7656,4.3125 17.7656,5.125 C17.7656,5.45833 17.7031,5.77083 17.5781,6.0625 C17.4323,6.40625 17.2083,6.75521 16.9063,7.10938 C16.8125,7.21354 16.526,7.51042 16.0469,8 L13.5469,10.5625 M20.6875,10.8281 L20.6875,10.2656 C20.9375,10.4115 21.1875,10.526 21.4375,10.6094 C21.6875,10.6823 21.9375,10.7188 22.1875,10.7188 C23.25,10.7188 23.9948,10.1979 24.4219,9.15625 C24.6198,8.67708 24.7083,7.86979 24.6875,6.73438 C24.5104,7.13021 24.2813,7.4375 24,7.65625 C23.6354,7.94792 23.1771,8.09375 22.625,8.09375 C21.9479,8.09375 21.3854,7.85417 20.9375,7.375 C20.4896,6.90625 20.2656,6.30208 20.2656,5.5625 C20.2656,4.73958 20.4844,4.07813 20.9219,3.57813 C21.3698,3.07813 21.9427,2.82813 22.6406,2.82813 C23.4844,2.82813 24.1302,3.1875 24.5781,3.90625 C25.026,4.61458 25.25,5.64583 25.25,7 C25.25,8.4375 24.974,9.48958 24.4219,10.1563 C23.8802,10.8229 23.1458,11.1563 22.2188,11.1563 C21.9688,11.1563 21.7188,11.1302 21.4688,11.0781 C21.2188,11.026 20.9583,10.9427 20.6875,10.8281 M21.3281,7.05469 C21.6615,7.44531 22.112,7.64063 22.6797,7.64063 C23.2474,7.64063 23.6979,7.44531 24.0313,7.05469 C24.3646,6.66406 24.5313,6.13021 24.5313,5.45313 C24.5313,4.77604 24.3646,4.24219 24.0313,3.85156 C23.6979,3.46094 23.2474,3.26563 22.6797,3.26563 C22.112,3.26563 21.6615,3.46094 21.3281,3.85156 C20.9948,4.24219 20.8281,4.77604 20.8281,5.45313 C20.8281,6.13021 20.9948,6.66406 21.3281,7.05469 M29.1563,2.98438 L29.7188,2.98438 L26.9219,12.0156 L26.3594,12.0156 L29.1563,2.98438 M31.1719,4.98438 L31.6719,4.98438 L31.6719,11.1094 C31.6719,11.9219 31.5469,12.4896 31.2969,12.8125 C31.0469,13.125 30.6354,13.2813 30.0625,13.2813 L29.6875,13.2813 L29.6875,12.875 L29.9531,12.875 C30.3594,12.875 30.6667,12.7813 30.875,12.5938 C31.0729,12.4167 31.1719,11.9219 31.1719,11.1094 L31.1719,4.98438 M31.1719,2.64063 L31.6719,2.64063 L31.6719,3.3125 L31.1719,3.3125 L31.1719,2.64063 M37.7656,6.01563 C37.4115,5.52604 36.9271,5.28125 36.3125,5.28125 C35.6979,5.28125 35.2135,5.52604 34.8594,6.01563 C34.5052,6.49479 34.3281,7.15104 34.3281,7.98438 C34.3281,8.83854 34.5052,9.51042 34.8594,10 C35.2135,10.4896 35.6979,10.7344 36.3125,10.7344 C36.9271,10.7344 37.4115,10.4896 37.7656,10 C38.1198,9.5 38.2969,8.82813 38.2969,7.98438 C38.2969,7.16146 38.1198,6.50521 37.7656,6.01563 M36.3125,4.84375 C37.0729,4.84375 37.6771,5.13021 38.125,5.70313 C38.5729,6.27604 38.7969,7.03646 38.7969,7.98438 C38.7969,8.97396 38.5729,9.75521 38.125,10.3281 C37.6771,10.901 37.0729,11.1875 36.3125,11.1875 C35.5313,11.1875 34.9167,10.901 34.4688,10.3281 C34.0313,9.75521 33.8125,8.97396 33.8125,7.98438 C33.8125,7.02604 34.0365,6.26302 34.4844,5.69531 C34.9323,5.1276 35.5417,4.84375 36.3125,4.84375 M42.9375,11.5625 C42.7188,12.0938 42.4844,12.4635 42.2344,12.6719 C41.901,12.9427 41.5781,13.0781 41.2656,13.0781 L40.5313,13.0781 L40.5313,12.6563 L41.1563,12.6563 C41.4167,12.6563 41.6458,12.5729 41.8438,12.4063 C42.0938,12.1875 42.3021,11.8698 42.4688,11.4531 L42.6406,11 L40.25,4.98438 L40.7813,4.98438 L42.9063,10.3438 L45.0469,4.98438 L45.5781,4.98438 L42.9375,11.5625"/>
</g>

<g fill="none" stroke="#000000" stroke-opacity="1" stroke-width="1" stroke-linecap="square" stroke-linejoin="bevel" transform="matrix(1.99952,0,0,1.99952,220.771,76.9816)"
font-family="sans" font-size="11" font-weight="100" font-style="normal" 
>
</g>

<g fill="none" stroke="#000000" stroke-opacity="1" stroke-width="1" stroke-linecap="square" stroke-linejoin="bevel" transform="matrix(1.99952,0,0,1.99952,220.771,76.9816)"
font-family="Ubuntu" font-size="11" font-weight="400" font-style="normal" 
>
</g>

<g fill="none" stroke="#000000" stroke-opacity="1" stroke-width="1" stroke-linecap="square" stroke-linejoin="bevel" transform="matrix(1.99952,0,0,1.99952,-14.9964,173.958)"
font-family="Ubuntu" font-size="11" font-weight="400" font-style="normal" 
>
</g>

<g fill="#000000" fill-opacity="1" stroke="#000000" stroke-opacity="1" stroke-width="1" stroke-linecap="square" stroke-linejoin="round" transform="matrix(1.99952,0,0,1.99952,-14.9964,173.958)"
font-family="Ubuntu" font-size="11" font-weight="400" font-style="normal" 
>
<path vector-effect="none" fill-rule="evenodd" d="M163.34,-34 L163.34,-30.4895 L173.37,-34 L163.34,-37.5105 L163.34,-34"/>
</g>

<g fill="none" stroke="#000000" stroke-opacity="1" stroke-width="1" stroke-linecap="square" stroke-linejoin="bevel" transform="matrix(1.99952,0,0,1.99952,-14.9964,173.958)"
font-family="Ubuntu" font-size="11" font-weight="400" font-style="normal" 
>
</g>

<g fill="none" stroke="#000000" stroke-opacity="1" stroke-width="1" stroke-linecap="square" stroke-linejoin="bevel" transform="matrix(1.99952,0,0,1.99952,-14.9964,173.958)"
font-family="Ubuntu" font-size="11" font-weight="400" font-style="normal" 
>
</g>

<g fill="none" stroke="#000000" stroke-opacity="1" stroke-width="1" stroke-linecap="square" stroke-linejoin="bevel" transform="matrix(1.99952,0,0,1.99952,-14.9964,173.958)"
font-family="Ubuntu" font-size="11" font-weight="400" font-style="normal" 
>
</g>

<g fill="none" stroke="#000000" stroke-opacity="1" stroke-width="1" stroke-linecap="square" stroke-linejoin="bevel" transform="matrix(1.99952,0,0,1.99952,-14.9964,173.958)"
font-family="Ubuntu" font-size="11" font-weight="400" font-style="normal" 
>
</g>

<g fill="none" stroke="#000000" stroke-opacity="1" stroke-width="1" stroke-linecap="square" stroke-linejoin="round" transform="matrix(1.99952,0,0,1.99952,-14.9964,173.958)"
font-family="Ubuntu" font-size="11" font-weight="400" font-style="normal" 
>
<path vector-effect="none" fill-rule="evenodd" d="M272.9,-41.508 C311.04,-47.549 364.26,-55.978 401.69,-61.906 "/>
</g>

<g fill="none" stroke="#000000" stroke-opacity="1" stroke-width="1" stroke-linecap="square" stroke-linejoin="bevel" transform="matrix(1.99952,0,0,1.99952,-14.9964,173.958)"
font-family="Ubuntu" font-size="11" font-weight="400" font-style="normal" 
>
</g>

<g fill="none" stroke="#000000" stroke-opacity="1" stroke-width="1" stroke-linecap="square" stroke-linejoin="bevel" transform="matrix(1.99952,0,0,1.99952,556.17,26.9935)"
font-family="Ubuntu" font-size="11" font-weight="400" font-style="normal" 
>
</g>

<g fill="none" stroke="#000000" stroke-opacity="1" stroke-width="1" stroke-linecap="square" stroke-linejoin="bevel" transform="matrix(1.99952,0,0,1.99952,556.17,26.9935)"
font-family="sans" font-size="11" font-weight="100" font-style="normal" 
>
</g>

<g fill="#000000" fill-opacity="1" stroke="#000000" stroke-opacity="1" stroke-width="1" stroke-linecap="square" stroke-linejoin="round" transform="matrix(1.99952,0,0,1.99952,556.17,26.9935)"
font-family="sans" font-size="11" font-weight="100" font-style="normal" 
>
<path vector-effect="none" fill-rule="nonzero" d="M2.96875,2.98438 L3.53125,2.98438 L0.734375,12.0156 L0.171875,12.0156 L2.96875,2.98438 M8.53125,6.01563 C8.17708,5.52604 7.69271,5.28125 7.07813,5.28125 C6.46354,5.28125 5.97917,5.52604 5.625,6.01563 C5.27083,6.49479 5.09375,7.15104 5.09375,7.98438 C5.09375,8.83854 5.27083,9.51042 5.625,10 C5.97917,10.4896 6.46354,10.7344 7.07813,10.7344 C7.69271,10.7344 8.17708,10.4896 8.53125,10 C8.88542,9.5 9.0625,8.82813 9.0625,7.98438 C9.0625,7.16146 8.88542,6.50521 8.53125,6.01563 M7.07813,4.84375 C7.83854,4.84375 8.44271,5.13021 8.89063,5.70313 C9.33854,6.27604 9.5625,7.03646 9.5625,7.98438 C9.5625,8.97396 9.33854,9.75521 8.89063,10.3281 C8.44271,10.901 7.83854,11.1875 7.07813,11.1875 C6.29688,11.1875 5.68229,10.901 5.23438,10.3281 C4.79688,9.75521 4.57813,8.97396 4.57813,7.98438 C4.57813,7.02604 4.80208,6.26302 5.25,5.69531 C5.69792,5.1276 6.30729,4.84375 7.07813,4.84375 M12.1563,9.64063 L12.1563,13.2813 L11.6719,13.2813 L11.6719,4.98438 L12.1563,4.98438 L12.1563,6.35938 C12.3854,5.83854 12.6302,5.47917 12.8906,5.28125 C13.2969,4.98958 13.6823,4.84375 14.0469,4.84375 C14.7552,4.84375 15.3464,5.13281 15.8203,5.71094 C16.2943,6.28906 16.5313,7.05208 16.5313,8 C16.5313,8.94792 16.2943,9.71094 15.8203,10.2891 C15.3464,10.8672 14.7552,11.1563 14.0469,11.1563 C13.6823,11.1563 13.2969,11.0052 12.8906,10.7031 C12.6302,10.5156 12.3854,10.1615 12.1563,9.64063 M15.3906,10.0938 C15.8073,9.67708 16.0156,8.97917 16.0156,8 C16.0156,7.02083 15.8073,6.32292 15.3906,5.90625 C14.974,5.48958 14.5365,5.28125 14.0781,5.28125 C13.6302,5.28125 13.1979,5.48958 12.7813,5.90625 C12.375,6.32292 12.1719,7.02083 12.1719,8 C12.1719,8.97917 12.375,9.67708 12.7813,10.0938 C13.1979,10.5104 13.6302,10.7188 14.0781,10.7188 C14.5365,10.7188 14.974,10.5104 15.3906,10.0938 M23.3281,7.75 L23.3281,8.0625 L18.7656,8.0625 C18.7656,9.02083 18.9531,9.69792 19.3281,10.0938 C19.7448,10.5208 20.3594,10.7344 21.1719,10.7344 C21.3906,10.7344 21.6771,10.6875 22.0313,10.5938 C22.3854,10.5 22.7396,10.3594 23.0938,10.1719 L23.0938,10.6875 C22.7396,10.8438 22.3776,10.9609 22.0078,11.0391 C21.638,11.1172 21.3438,11.1563 21.125,11.1563 C20.1979,11.1563 19.5,10.9063 19.0313,10.4063 C18.5208,9.875 18.2656,9.09375 18.2656,8.0625 C18.2656,6.98958 18.4948,6.1875 18.9531,5.65625 C19.4323,5.11458 20.099,4.84375 20.9531,4.84375 C21.7344,4.84375 22.3281,5.10417 22.7344,5.625 C23.1302,6.16667 23.3281,6.875 23.3281,7.75 M22.8281,7.64063 C22.8281,6.79688 22.6354,6.18229 22.25,5.79688 C21.9375,5.45313 21.5052,5.28125 20.9531,5.28125 C20.3594,5.28125 19.8594,5.45833 19.4531,5.8125 C19.0781,6.14583 18.8542,6.75521 18.7813,7.64063 L22.8281,7.64063 M28.6719,5.40625 C28.5885,5.36458 28.4792,5.33333 28.3438,5.3125 C28.2188,5.29167 28.0677,5.28125 27.8906,5.28125 C27.276,5.28125 26.7708,5.50521 26.375,5.95313 C26.0521,6.31771 25.8906,6.94271 25.8906,7.82813 L25.8906,11 L25.4063,11 L25.4063,4.98438 L25.8906,4.98438 L25.8906,6.10938 C26.0573,5.78646 26.2865,5.51563 26.5781,5.29688 C26.974,4.99479 27.4427,4.84375 27.9844,4.84375 C28.1302,4.84375 28.2552,4.84896 28.3594,4.85938 C28.4635,4.85938 28.5677,4.86979 28.6719,4.89063 L28.6719,5.40625 M32.3281,7.60938 C31.526,7.60938 30.9505,7.75 30.6016,8.03125 C30.2526,8.3125 30.0781,8.72396 30.0781,9.26563 C30.0781,9.79688 30.224,10.1745 30.5156,10.3984 C30.8073,10.6224 31.151,10.7344 31.5469,10.7344 C32.2969,10.7344 32.8385,10.4167 33.1719,9.78125 C33.5052,9.13542 33.6719,8.53125 33.6719,7.96875 L33.6719,7.60938 L32.3281,7.60938 M34.1719,7.5625 L34.1719,11 L33.6719,11 L33.6719,9.35938 C33.401,10.1615 33.0365,10.6719 32.5781,10.8906 C32.224,11.0677 31.8646,11.1563 31.5,11.1563 C30.9063,11.1563 30.4375,10.9948 30.0938,10.6719 C29.75,10.349 29.5781,9.8776 29.5781,9.25781 C29.5781,8.63802 29.8021,8.14063 30.25,7.76563 C30.6979,7.39063 31.4271,7.20313 32.4375,7.20313 L33.6719,7.20313 L33.6719,7.10938 C33.6719,6.57813 33.5156,6.14063 33.2031,5.79688 C32.9115,5.45313 32.4167,5.28125 31.7188,5.28125 C31.375,5.28125 31.026,5.34375 30.6719,5.46875 C30.4427,5.55208 30.1406,5.71875 29.7656,5.96875 L29.7656,5.4375 C30.0885,5.23958 30.3906,5.09896 30.6719,5.01563 C31.0677,4.90104 31.4479,4.84375 31.8125,4.84375 C32.5313,4.84375 33.1198,5.05729 33.5781,5.48438 C33.974,5.84896 34.1719,6.54167 34.1719,7.5625 M37.1719,3.28125 L37.1719,4.98438 L39.2031,4.98438 L39.2031,5.40625 L37.1719,5.40625 L37.1719,9.01563 C37.1719,9.47396 37.2292,9.79688 37.3438,9.98438 C37.5938,10.3802 37.9531,10.5781 38.4219,10.5781 L39.2031,10.5781 L39.2031,11 L38.4375,11 C37.9479,11 37.5313,10.8568 37.1875,10.5703 C36.8438,10.2839 36.6719,9.76563 36.6719,9.01563 L36.6719,5.40625 L35.9531,5.40625 L35.9531,4.98438 L36.6719,4.98438 L36.6719,3.28125 L37.1719,3.28125 M44.5469,6.01563 C44.1927,5.52604 43.7083,5.28125 43.0938,5.28125 C42.4792,5.28125 41.9948,5.52604 41.6406,6.01563 C41.2865,6.49479 41.1094,7.15104 41.1094,7.98438 C41.1094,8.83854 41.2865,9.51042 41.6406,10 C41.9948,10.4896 42.4792,10.7344 43.0938,10.7344 C43.7083,10.7344 44.1927,10.4896 44.5469,10 C44.901,9.5 45.0781,8.82813 45.0781,7.98438 C45.0781,7.16146 44.901,6.50521 44.5469,6.01563 M43.0938,4.84375 C43.8542,4.84375 44.4583,5.13021 44.9063,5.70313 C45.3542,6.27604 45.5781,7.03646 45.5781,7.98438 C45.5781,8.97396 45.3542,9.75521 44.9063,10.3281 C44.4583,10.901 43.8542,11.1875 43.0938,11.1875 C42.3125,11.1875 41.6979,10.901 41.25,10.3281 C40.8125,9.75521 40.5938,8.97396 40.5938,7.98438 C40.5938,7.02604 40.8177,6.26302 41.2656,5.69531 C41.7135,5.1276 42.3229,4.84375 43.0938,4.84375 M50.9531,5.40625 C50.8698,5.36458 50.7604,5.33333 50.625,5.3125 C50.5,5.29167 50.349,5.28125 50.1719,5.28125 C49.5573,5.28125 49.0521,5.50521 48.6563,5.95313 C48.3333,6.31771 48.1719,6.94271 48.1719,7.82813 L48.1719,11 L47.6875,11 L47.6875,4.98438 L48.1719,4.98438 L48.1719,6.10938 C48.3385,5.78646 48.5677,5.51563 48.8594,5.29688 C49.2552,4.99479 49.724,4.84375 50.2656,4.84375 C50.4115,4.84375 50.5365,4.84896 50.6406,4.85938 C50.7448,4.85938 50.849,4.86979 50.9531,4.89063 L50.9531,5.40625 M53.9219,2.98438 L54.4844,2.98438 L51.6875,12.0156 L51.125,12.0156 L53.9219,2.98438 M56.3906,9.64063 L56.3906,13.2813 L55.9063,13.2813 L55.9063,4.98438 L56.3906,4.98438 L56.3906,6.35938 C56.6198,5.83854 56.8646,5.47917 57.125,5.28125 C57.5313,4.98958 57.9167,4.84375 58.2813,4.84375 C58.9896,4.84375 59.5807,5.13281 60.0547,5.71094 C60.5286,6.28906 60.7656,7.05208 60.7656,8 C60.7656,8.94792 60.5286,9.71094 60.0547,10.2891 C59.5807,10.8672 58.9896,11.1563 58.2813,11.1563 C57.9167,11.1563 57.5313,11.0052 57.125,10.7031 C56.8646,10.5156 56.6198,10.1615 56.3906,9.64063 M59.625,10.0938 C60.0417,9.67708 60.25,8.97917 60.25,8 C60.25,7.02083 60.0417,6.32292 59.625,5.90625 C59.2083,5.48958 58.7708,5.28125 58.3125,5.28125 C57.8646,5.28125 57.4323,5.48958 57.0156,5.90625 C56.6094,6.32292 56.4063,7.02083 56.4063,8 C56.4063,8.97917 56.6094,9.67708 57.0156,10.0938 C57.4323,10.5104 57.8646,10.7188 58.3125,10.7188 C58.7708,10.7188 59.2083,10.5104 59.625,10.0938 M62.8125,8.60938 L62.8125,4.98438 L63.2969,4.98438 L63.2969,8.57813 C63.2969,9.35938 63.4219,9.90885 63.6719,10.2266 C63.9219,10.5443 64.2917,10.7031 64.7813,10.7031 C65.3542,10.7031 65.8438,10.5313 66.25,10.1875 C66.6563,9.84375 66.8594,9.24479 66.8594,8.39063 L66.8594,4.98438 L67.3438,4.98438 L67.3438,11 L66.8594,11 L66.8594,9.875 C66.6823,10.2396 66.4479,10.5156 66.1563,10.7031 C65.7396,10.9948 65.276,11.1406 64.7656,11.1406 C64.1719,11.1406 63.6979,10.9375 63.3438,10.5313 C62.9896,10.1354 62.8125,9.49479 62.8125,8.60938 M73.5625,10.0938 C73.9792,9.67708 74.1875,8.97917 74.1875,8 C74.1875,7.02083 73.9792,6.32292 73.5625,5.90625 C73.1458,5.48958 72.7083,5.28125 72.25,5.28125 C71.8021,5.28125 71.3698,5.48958 70.9531,5.90625 C70.5469,6.32292 70.3438,7.02083 70.3438,8 C70.3438,8.97917 70.5469,9.67708 70.9531,10.0938 C71.3698,10.5104 71.8021,10.7188 72.25,10.7188 C72.7083,10.7188 73.1458,10.5104 73.5625,10.0938 M70.3281,6.35938 C70.5573,5.83854 70.8021,5.47917 71.0625,5.28125 C71.4688,4.98958 71.8542,4.84375 72.2188,4.84375 C72.9271,4.84375 73.5182,5.13281 73.9922,5.71094 C74.4661,6.28906 74.7031,7.05208 74.7031,8 C74.7031,8.94792 74.4661,9.71094 73.9922,10.2891 C73.5182,10.8672 72.9271,11.1563 72.2188,11.1563 C71.8542,11.1563 71.4688,11.0052 71.0625,10.7031 C70.8021,10.5156 70.5573,10.1615 70.3281,9.64063 L70.3281,11 L69.8438,11 L69.8438,2.64063 L70.3281,2.64063 L70.3281,6.35938 M81.1719,13.1719 L81.1719,13.5938 L75.4531,13.5938 L75.4531,13.1719 L81.1719,13.1719 M82.2969,4.98438 L82.7969,4.98438 L82.7969,11 L82.2969,11 L82.2969,4.98438 M82.2969,2.64063 L82.7969,2.64063 L82.7969,3.3125 L82.2969,3.3125 L82.2969,2.64063 M89.9063,7.375 L89.9063,11 L89.4063,11 L89.4063,7.40625 C89.4063,6.625 89.2813,6.07552 89.0313,5.75781 C88.7813,5.4401 88.4115,5.28125 87.9219,5.28125 C87.349,5.28125 86.8646,5.45313 86.4688,5.79688 C86.0521,6.14063 85.8438,6.73958 85.8438,7.59375 L85.8438,11 L85.3594,11 L85.3594,4.98438 L85.8438,4.98438 L85.8438,6.10938 C86.0208,5.74479 86.2552,5.46875 86.5469,5.28125 C86.9635,4.98958 87.4271,4.84375 87.9375,4.84375 C88.5417,4.84375 89.0208,5.04688 89.375,5.45313 C89.7292,5.84896 89.9063,6.48958 89.9063,7.375 M94.9063,2.64063 L94.9063,3.0625 L94.2188,3.0625 C93.8542,3.0625 93.5729,3.15625 93.375,3.34375 C93.1354,3.57292 93.0156,3.94271 93.0156,4.45313 L93.0156,4.98438 L94.6406,4.98438 L94.6406,5.40625 L93.0156,5.40625 L93.0156,11 L92.5156,11 L92.5156,5.40625 L91.5781,5.40625 L91.5781,4.98438 L92.5156,4.98438 L92.5156,4.5625 C92.5156,3.89583 92.6719,3.41146 92.9844,3.10938 C93.2865,2.79688 93.6979,2.64063 94.2188,2.64063 L94.9063,2.64063 M99.7656,6.01563 C99.4115,5.52604 98.9271,5.28125 98.3125,5.28125 C97.6979,5.28125 97.2135,5.52604 96.8594,6.01563 C96.5052,6.49479 96.3281,7.15104 96.3281,7.98438 C96.3281,8.83854 96.5052,9.51042 96.8594,10 C97.2135,10.4896 97.6979,10.7344 98.3125,10.7344 C98.9271,10.7344 99.4115,10.4896 99.7656,10 C100.12,9.5 100.297,8.82813 100.297,7.98438 C100.297,7.16146 100.12,6.50521 99.7656,6.01563 M98.3125,4.84375 C99.0729,4.84375 99.6771,5.13021 100.125,5.70313 C100.573,6.27604 100.797,7.03646 100.797,7.98438 C100.797,8.97396 100.573,9.75521 100.125,10.3281 C99.6771,10.901 99.0729,11.1875 98.3125,11.1875 C97.5313,11.1875 96.9167,10.901 96.4688,10.3281 C96.0313,9.75521 95.8125,8.97396 95.8125,7.98438 C95.8125,7.02604 96.0365,6.26302 96.4844,5.69531 C96.9323,5.1276 97.5417,4.84375 98.3125,4.84375 "/>
</g>

<g fill="none" stroke="#000000" stroke-opacity="1" stroke-width="1" stroke-linecap="square" stroke-linejoin="bevel" transform="matrix(1.99952,0,0,1.99952,556.17,26.9935)"
font-family="sans" font-size="11" font-weight="100" font-style="normal" 
>
</g>

<g fill="none" stroke="#000000" stroke-opacity="1" stroke-width="1" stroke-linecap="square" stroke-linejoin="bevel" transform="matrix(1.99952,0,0,1.99952,556.17,26.9935)"
font-family="Ubuntu" font-size="11" font-weight="400" font-style="normal" 
>
</g>

<g fill="none" stroke="#000000" stroke-opacity="1" stroke-width="1" stroke-linecap="square" stroke-linejoin="bevel" transform="matrix(1.99952,0,0,1.99952,-14.9964,173.958)"
font-family="Ubuntu" font-size="11" font-weight="400" font-style="normal" 
>
</g>

<g fill="#000000" fill-opacity="1" stroke="#000000" stroke-opacity="1" stroke-width="1" stroke-linecap="square" stroke-linejoin="round" transform="matrix(1.99952,0,0,1.99952,-14.9964,173.958)"
font-family="Ubuntu" font-size="11" font-weight="400" font-style="normal" 
>
<path vector-effect="none" fill-rule="evenodd" d="M401.69,-61.906 L402.25,-58.3675 L411.8,-63.507 L401.13,-65.4445 L401.69,-61.906"/>
</g>

<g fill="none" stroke="#000000" stroke-opacity="1" stroke-width="1" stroke-linecap="square" stroke-linejoin="bevel" transform="matrix(1.99952,0,0,1.99952,-14.9964,173.958)"
font-family="Ubuntu" font-size="11" font-weight="400" font-style="normal" 
>
</g>

<g fill="none" stroke="#000000" stroke-opacity="1" stroke-width="1" stroke-linecap="square" stroke-linejoin="bevel" transform="matrix(1,0,0,1,0,0)"
font-family="Ubuntu" font-size="11" font-weight="400" font-style="normal" 
>
</g>
</g>
</svg>
